<mxfile host="65bd71144e" modified="2020-11-03T00:41:27.769Z" agent="5.0 (Windows NT 10.0; Win64; x64) AppleWebKit/537.36 (KHTML, like Gecko) Code/1.50.1 Chrome/83.0.4103.122 Electron/9.2.1 Safari/537.36" etag="aC3FXYFrKc3yAU9nwg7J" version="13.6.5" pages="9">
    <diagram id="S_EqY185-dc2p55byX0k" name="Main-Loop">
        <mxGraphModel dx="1106" dy="753" grid="1" gridSize="10" guides="1" tooltips="1" connect="1" arrows="1" fold="1" page="1" pageScale="1" pageWidth="850" pageHeight="1100" math="0" shadow="0">
            <root>
                <mxCell id="0"/>
                <mxCell id="1" parent="0"/>
                <mxCell id="pAuYmlePvZ7gUMCXV7AC-6" style="edgeStyle=orthogonalEdgeStyle;rounded=0;orthogonalLoop=1;jettySize=auto;html=1;exitX=0.5;exitY=1;exitDx=0;exitDy=0;entryX=0.5;entryY=0;entryDx=0;entryDy=0;" parent="1" source="GxrVGHx6pOc6Dc-y0MjW-2" target="pAuYmlePvZ7gUMCXV7AC-4" edge="1">
                    <mxGeometry relative="1" as="geometry"/>
                </mxCell>
                <mxCell id="GxrVGHx6pOc6Dc-y0MjW-2" value="Power On" style="rounded=1;whiteSpace=wrap;html=1;arcSize=50;fillColor=#d5e8d4;strokeColor=#82b366;" parent="1" vertex="1">
                    <mxGeometry x="235" y="40" width="80" height="30" as="geometry"/>
                </mxCell>
                <mxCell id="GxrVGHx6pOc6Dc-y0MjW-5" style="edgeStyle=orthogonalEdgeStyle;rounded=0;orthogonalLoop=1;jettySize=auto;html=1;exitX=0.5;exitY=1;exitDx=0;exitDy=0;entryX=0.5;entryY=0;entryDx=0;entryDy=0;" parent="1" source="GxrVGHx6pOc6Dc-y0MjW-6" target="GxrVGHx6pOc6Dc-y0MjW-9" edge="1">
                    <mxGeometry relative="1" as="geometry"/>
                </mxCell>
                <mxCell id="GxrVGHx6pOc6Dc-y0MjW-6" value="Standby State" style="ellipse;whiteSpace=wrap;html=1;aspect=fixed;fillColor=#d5e8d4;strokeColor=#82b366;" parent="1" vertex="1">
                    <mxGeometry x="245" y="240" width="60" height="60" as="geometry"/>
                </mxCell>
                <mxCell id="GxrVGHx6pOc6Dc-y0MjW-8" value="False" style="edgeStyle=orthogonalEdgeStyle;rounded=0;orthogonalLoop=1;jettySize=auto;html=1;exitX=0.5;exitY=1;exitDx=0;exitDy=0;entryX=0.5;entryY=0;entryDx=0;entryDy=0;" parent="1" source="GxrVGHx6pOc6Dc-y0MjW-9" target="GxrVGHx6pOc6Dc-y0MjW-15" edge="1">
                    <mxGeometry relative="1" as="geometry"/>
                </mxCell>
                <mxCell id="pAuYmlePvZ7gUMCXV7AC-3" value="True" style="edgeStyle=orthogonalEdgeStyle;rounded=0;orthogonalLoop=1;jettySize=auto;html=1;exitX=1;exitY=0.5;exitDx=0;exitDy=0;entryX=0;entryY=0.5;entryDx=0;entryDy=0;" parent="1" source="GxrVGHx6pOc6Dc-y0MjW-9" target="pAuYmlePvZ7gUMCXV7AC-1" edge="1">
                    <mxGeometry relative="1" as="geometry"/>
                </mxCell>
                <mxCell id="GxrVGHx6pOc6Dc-y0MjW-9" value="&lt;p style=&quot;line-height: 120%&quot;&gt;Impossible hardware config encountered&lt;/p&gt;" style="rhombus;whiteSpace=wrap;html=1;spacing=20;spacingLeft=0;fillColor=#fff2cc;strokeColor=#d6b656;" parent="1" vertex="1">
                    <mxGeometry x="190" y="330" width="170" height="80" as="geometry"/>
                </mxCell>
                <mxCell id="GxrVGHx6pOc6Dc-y0MjW-12" value="True" style="edgeStyle=orthogonalEdgeStyle;rounded=0;orthogonalLoop=1;jettySize=auto;html=1;exitX=1;exitY=0.5;exitDx=0;exitDy=0;entryX=0.5;entryY=0;entryDx=0;entryDy=0;" parent="1" source="GxrVGHx6pOc6Dc-y0MjW-15" target="GxrVGHx6pOc6Dc-y0MjW-28" edge="1">
                    <mxGeometry x="-0.661" relative="1" as="geometry">
                        <mxPoint as="offset"/>
                    </mxGeometry>
                </mxCell>
                <mxCell id="GxrVGHx6pOc6Dc-y0MjW-13" style="edgeStyle=orthogonalEdgeStyle;rounded=0;orthogonalLoop=1;jettySize=auto;html=1;exitX=0.5;exitY=1;exitDx=0;exitDy=0;entryX=0.5;entryY=0;entryDx=0;entryDy=0;" parent="1" source="GxrVGHx6pOc6Dc-y0MjW-15" target="GxrVGHx6pOc6Dc-y0MjW-36" edge="1">
                    <mxGeometry relative="1" as="geometry"/>
                </mxCell>
                <mxCell id="GxrVGHx6pOc6Dc-y0MjW-14" value="False" style="edgeLabel;html=1;align=center;verticalAlign=middle;resizable=0;points=[];" parent="GxrVGHx6pOc6Dc-y0MjW-13" vertex="1" connectable="0">
                    <mxGeometry x="-0.9535" y="-1" relative="1" as="geometry">
                        <mxPoint as="offset"/>
                    </mxGeometry>
                </mxCell>
                <mxCell id="GxrVGHx6pOc6Dc-y0MjW-15" value="&lt;p style=&quot;line-height: 120%&quot;&gt;Received command&lt;/p&gt;" style="rhombus;whiteSpace=wrap;html=1;fillColor=#fff2cc;strokeColor=#d6b656;" parent="1" vertex="1">
                    <mxGeometry x="190" y="440" width="170" height="80" as="geometry"/>
                </mxCell>
                <mxCell id="GxrVGHx6pOc6Dc-y0MjW-16" value="False" style="edgeStyle=orthogonalEdgeStyle;rounded=0;orthogonalLoop=1;jettySize=auto;html=1;exitX=0.5;exitY=1;exitDx=0;exitDy=0;entryX=0.5;entryY=0;entryDx=0;entryDy=0;" parent="1" source="GxrVGHx6pOc6Dc-y0MjW-18" target="GxrVGHx6pOc6Dc-y0MjW-21" edge="1">
                    <mxGeometry relative="1" as="geometry"/>
                </mxCell>
                <mxCell id="GxrVGHx6pOc6Dc-y0MjW-17" value="True" style="edgeStyle=orthogonalEdgeStyle;rounded=0;orthogonalLoop=1;jettySize=auto;html=1;exitX=1;exitY=0.5;exitDx=0;exitDy=0;entryX=0;entryY=0.5;entryDx=0;entryDy=0;" parent="1" source="GxrVGHx6pOc6Dc-y0MjW-18" target="GxrVGHx6pOc6Dc-y0MjW-30" edge="1">
                    <mxGeometry relative="1" as="geometry"/>
                </mxCell>
                <mxCell id="GxrVGHx6pOc6Dc-y0MjW-18" value="&lt;font style=&quot;font-size: 12px&quot;&gt;command&amp;nbsp;&lt;span style=&quot;color: rgb(32 , 33 , 34)&quot;&gt;∈ Motor System call&lt;/span&gt;&lt;/font&gt;" style="rhombus;whiteSpace=wrap;html=1;spacing=20;spacingRight=0;fillColor=#fff2cc;strokeColor=#d6b656;" parent="1" vertex="1">
                    <mxGeometry x="360" y="610" width="170" height="80" as="geometry"/>
                </mxCell>
                <mxCell id="GxrVGHx6pOc6Dc-y0MjW-19" value="False" style="edgeStyle=orthogonalEdgeStyle;rounded=0;orthogonalLoop=1;jettySize=auto;html=1;exitX=0.5;exitY=1;exitDx=0;exitDy=0;entryX=0.5;entryY=0;entryDx=0;entryDy=0;" parent="1" source="GxrVGHx6pOc6Dc-y0MjW-21" target="GxrVGHx6pOc6Dc-y0MjW-24" edge="1">
                    <mxGeometry relative="1" as="geometry"/>
                </mxCell>
                <mxCell id="GxrVGHx6pOc6Dc-y0MjW-20" value="True" style="edgeStyle=orthogonalEdgeStyle;rounded=0;orthogonalLoop=1;jettySize=auto;html=1;exitX=1;exitY=0.5;exitDx=0;exitDy=0;entryX=0;entryY=0.5;entryDx=0;entryDy=0;" parent="1" source="GxrVGHx6pOc6Dc-y0MjW-21" target="GxrVGHx6pOc6Dc-y0MjW-32" edge="1">
                    <mxGeometry relative="1" as="geometry"/>
                </mxCell>
                <mxCell id="GxrVGHx6pOc6Dc-y0MjW-21" value="&lt;font style=&quot;font-size: 12px&quot;&gt;command&amp;nbsp;&lt;span style=&quot;color: rgb(32 , 33 , 34)&quot;&gt;∈ Hardware Power call&lt;/span&gt;&lt;/font&gt;" style="rhombus;whiteSpace=wrap;html=1;spacing=20;spacingRight=0;fillColor=#fff2cc;strokeColor=#d6b656;" parent="1" vertex="1">
                    <mxGeometry x="360" y="720" width="170" height="80" as="geometry"/>
                </mxCell>
                <mxCell id="GxrVGHx6pOc6Dc-y0MjW-22" value="False" style="edgeStyle=orthogonalEdgeStyle;rounded=0;orthogonalLoop=1;jettySize=auto;html=1;exitX=0.5;exitY=1;exitDx=0;exitDy=0;entryX=0.5;entryY=0;entryDx=0;entryDy=0;" parent="1" source="GxrVGHx6pOc6Dc-y0MjW-24" target="GxrVGHx6pOc6Dc-y0MjW-38" edge="1">
                    <mxGeometry relative="1" as="geometry"/>
                </mxCell>
                <mxCell id="GxrVGHx6pOc6Dc-y0MjW-23" value="True" style="edgeStyle=orthogonalEdgeStyle;rounded=0;orthogonalLoop=1;jettySize=auto;html=1;exitX=1;exitY=0.5;exitDx=0;exitDy=0;entryX=0;entryY=0.5;entryDx=0;entryDy=0;" parent="1" source="GxrVGHx6pOc6Dc-y0MjW-24" target="GxrVGHx6pOc6Dc-y0MjW-34" edge="1">
                    <mxGeometry relative="1" as="geometry"/>
                </mxCell>
                <mxCell id="GxrVGHx6pOc6Dc-y0MjW-24" value="&lt;font style=&quot;font-size: 12px&quot;&gt;command&amp;nbsp;&lt;span style=&quot;color: rgb(32 , 33 , 34)&quot;&gt;∈ Procedure call&lt;/span&gt;&lt;/font&gt;" style="rhombus;whiteSpace=wrap;html=1;spacing=20;spacingRight=0;fillColor=#fff2cc;strokeColor=#d6b656;" parent="1" vertex="1">
                    <mxGeometry x="360" y="830" width="170" height="80" as="geometry"/>
                </mxCell>
                <mxCell id="GxrVGHx6pOc6Dc-y0MjW-25" style="edgeStyle=orthogonalEdgeStyle;rounded=0;orthogonalLoop=1;jettySize=auto;html=1;exitX=0;exitY=0.5;exitDx=0;exitDy=0;entryX=0.5;entryY=0;entryDx=0;entryDy=0;" parent="1" source="GxrVGHx6pOc6Dc-y0MjW-28" target="GxrVGHx6pOc6Dc-y0MjW-36" edge="1">
                    <mxGeometry relative="1" as="geometry"/>
                </mxCell>
                <mxCell id="GxrVGHx6pOc6Dc-y0MjW-26" value="True" style="edgeLabel;html=1;align=center;verticalAlign=middle;resizable=0;points=[];" parent="GxrVGHx6pOc6Dc-y0MjW-25" vertex="1" connectable="0">
                    <mxGeometry x="-0.946" y="-1" relative="1" as="geometry">
                        <mxPoint x="-12.5" y="1" as="offset"/>
                    </mxGeometry>
                </mxCell>
                <mxCell id="GxrVGHx6pOc6Dc-y0MjW-27" value="False" style="edgeStyle=orthogonalEdgeStyle;rounded=0;orthogonalLoop=1;jettySize=auto;html=1;exitX=0.5;exitY=1;exitDx=0;exitDy=0;entryX=0.5;entryY=0;entryDx=0;entryDy=0;" parent="1" source="GxrVGHx6pOc6Dc-y0MjW-28" target="GxrVGHx6pOc6Dc-y0MjW-18" edge="1">
                    <mxGeometry relative="1" as="geometry"/>
                </mxCell>
                <mxCell id="GxrVGHx6pOc6Dc-y0MjW-28" value="system config already meets command" style="rhombus;whiteSpace=wrap;html=1;spacing=20;spacingRight=0;fillColor=#fff2cc;strokeColor=#d6b656;" parent="1" vertex="1">
                    <mxGeometry x="360" y="500" width="170" height="80" as="geometry"/>
                </mxCell>
                <mxCell id="GxrVGHx6pOc6Dc-y0MjW-29" style="edgeStyle=orthogonalEdgeStyle;rounded=0;orthogonalLoop=1;jettySize=auto;html=1;exitX=1;exitY=0.5;exitDx=0;exitDy=0;entryX=1;entryY=0.5;entryDx=0;entryDy=0;" parent="1" source="GxrVGHx6pOc6Dc-y0MjW-30" target="GxrVGHx6pOc6Dc-y0MjW-36" edge="1">
                    <mxGeometry relative="1" as="geometry"/>
                </mxCell>
                <mxCell id="GxrVGHx6pOc6Dc-y0MjW-30" value="Run Motor System Command" style="shape=process;whiteSpace=wrap;html=1;backgroundOutline=1;" parent="1" vertex="1">
                    <mxGeometry x="590" y="630" width="130" height="40" as="geometry"/>
                </mxCell>
                <mxCell id="GxrVGHx6pOc6Dc-y0MjW-31" style="edgeStyle=orthogonalEdgeStyle;rounded=0;orthogonalLoop=1;jettySize=auto;html=1;exitX=1;exitY=0.5;exitDx=0;exitDy=0;entryX=1;entryY=0.5;entryDx=0;entryDy=0;" parent="1" source="GxrVGHx6pOc6Dc-y0MjW-32" target="GxrVGHx6pOc6Dc-y0MjW-36" edge="1">
                    <mxGeometry relative="1" as="geometry"/>
                </mxCell>
                <mxCell id="GxrVGHx6pOc6Dc-y0MjW-32" value="&lt;a href=&quot;data:page/id,fMjt44vwcyZgFf3OZV7Q&quot;&gt;Run Hardware Power Command&lt;/a&gt;" style="shape=process;whiteSpace=wrap;html=1;backgroundOutline=1;fillColor=#dae8fc;strokeColor=#6c8ebf;" parent="1" vertex="1">
                    <mxGeometry x="590" y="740" width="130" height="40" as="geometry"/>
                </mxCell>
                <mxCell id="GxrVGHx6pOc6Dc-y0MjW-33" style="edgeStyle=orthogonalEdgeStyle;rounded=0;orthogonalLoop=1;jettySize=auto;html=1;exitX=1;exitY=0.5;exitDx=0;exitDy=0;entryX=1;entryY=0.5;entryDx=0;entryDy=0;" parent="1" source="GxrVGHx6pOc6Dc-y0MjW-34" target="GxrVGHx6pOc6Dc-y0MjW-36" edge="1">
                    <mxGeometry relative="1" as="geometry"/>
                </mxCell>
                <mxCell id="GxrVGHx6pOc6Dc-y0MjW-34" value="&lt;a href=&quot;data:page/id,WO9AvToeDl4UmgfDawZ4&quot;&gt;Run Procedure Call&lt;/a&gt;" style="shape=process;whiteSpace=wrap;html=1;backgroundOutline=1;fillColor=#dae8fc;strokeColor=#6c8ebf;" parent="1" vertex="1">
                    <mxGeometry x="590" y="850" width="130" height="40" as="geometry"/>
                </mxCell>
                <mxCell id="GxrVGHx6pOc6Dc-y0MjW-35" style="edgeStyle=orthogonalEdgeStyle;rounded=0;orthogonalLoop=1;jettySize=auto;html=1;exitX=0;exitY=0.5;exitDx=0;exitDy=0;entryX=0;entryY=0.5;entryDx=0;entryDy=0;" parent="1" source="GxrVGHx6pOc6Dc-y0MjW-36" target="GxrVGHx6pOc6Dc-y0MjW-6" edge="1">
                    <mxGeometry relative="1" as="geometry">
                        <Array as="points">
                            <mxPoint x="175" y="1050"/>
                            <mxPoint x="175" y="270"/>
                        </Array>
                    </mxGeometry>
                </mxCell>
                <mxCell id="GxrVGHx6pOc6Dc-y0MjW-36" value="Standby State" style="ellipse;whiteSpace=wrap;html=1;aspect=fixed;fillColor=#d5e8d4;strokeColor=#82b366;" parent="1" vertex="1">
                    <mxGeometry x="245" y="1020" width="60" height="60" as="geometry"/>
                </mxCell>
                <mxCell id="GxrVGHx6pOc6Dc-y0MjW-37" style="edgeStyle=orthogonalEdgeStyle;rounded=0;orthogonalLoop=1;jettySize=auto;html=1;exitX=0.5;exitY=1;exitDx=0;exitDy=0;entryX=0.5;entryY=0;entryDx=0;entryDy=0;" parent="1" source="GxrVGHx6pOc6Dc-y0MjW-38" target="GxrVGHx6pOc6Dc-y0MjW-36" edge="1">
                    <mxGeometry relative="1" as="geometry"/>
                </mxCell>
                <mxCell id="GxrVGHx6pOc6Dc-y0MjW-38" value="Report unrecognized command to user" style="shape=parallelogram;perimeter=parallelogramPerimeter;whiteSpace=wrap;html=1;fixedSize=1;spacing=20;" parent="1" vertex="1">
                    <mxGeometry x="368.75" y="940" width="152.5" height="40" as="geometry"/>
                </mxCell>
                <mxCell id="GxrVGHx6pOc6Dc-y0MjW-39" value="&lt;font style=&quot;font-size: 14px&quot;&gt;Motor System Commands&lt;/font&gt;:&lt;br&gt;&lt;span&gt;&amp;nbsp; - Open/Close Doors&lt;br&gt;&lt;/span&gt;&lt;span&gt;&amp;nbsp; - Open/Close Roof&lt;br&gt;&lt;/span&gt;&lt;span&gt;&amp;nbsp; - Raise/Lower Top Pad&lt;br&gt;&lt;/span&gt;&lt;span&gt;&amp;nbsp; - Extend/Retract Bottom Pad&lt;/span&gt;&lt;span&gt;&lt;br&gt;&lt;/span&gt;&lt;div&gt;&lt;br&gt;&lt;/div&gt;" style="text;html=1;strokeColor=none;fillColor=none;align=left;verticalAlign=top;whiteSpace=wrap;rounded=0;" parent="1" vertex="1">
                    <mxGeometry x="580" y="140" width="170" height="90" as="geometry"/>
                </mxCell>
                <mxCell id="GxrVGHx6pOc6Dc-y0MjW-40" value="&lt;font style=&quot;font-size: 14px&quot;&gt;Hardware Power Commands&lt;/font&gt;:&lt;br&gt;&lt;span&gt;&amp;nbsp; - System Halt&lt;br&gt;&lt;/span&gt;&lt;span&gt;&amp;nbsp; - System Continue&lt;/span&gt;&lt;span&gt;&lt;br&gt;&lt;/span&gt;" style="text;html=1;strokeColor=none;fillColor=none;align=left;verticalAlign=top;whiteSpace=wrap;rounded=0;" parent="1" vertex="1">
                    <mxGeometry x="580" y="250" width="195" height="60" as="geometry"/>
                </mxCell>
                <mxCell id="GxrVGHx6pOc6Dc-y0MjW-41" value="&lt;span style=&quot;font-size: 14px&quot;&gt;Procedure Calls&lt;/span&gt;:&lt;br&gt;&lt;span&gt;&amp;nbsp; - Diagnostic Walkthrough&lt;br&gt;&amp;nbsp; - Top Drone Mission&lt;br&gt;&amp;nbsp; - Bottom Drone Mission&lt;br&gt;&lt;/span&gt;" style="text;html=1;strokeColor=none;fillColor=none;align=left;verticalAlign=top;whiteSpace=wrap;rounded=0;" parent="1" vertex="1">
                    <mxGeometry x="580" y="330" width="170" height="80" as="geometry"/>
                </mxCell>
                <mxCell id="GxrVGHx6pOc6Dc-y0MjW-43" value="&lt;a href=&quot;data:page/id,rtuHvfN65sJRfW5IH7EF&quot;&gt;Run Motor System Command&lt;/a&gt;" style="shape=process;whiteSpace=wrap;html=1;backgroundOutline=1;fillColor=#dae8fc;strokeColor=#6c8ebf;" parent="1" vertex="1">
                    <mxGeometry x="590" y="630" width="130" height="40" as="geometry"/>
                </mxCell>
                <mxCell id="kw-ZCUkcIsH4bJL5rBoI-1" value="&lt;h1&gt;Main Loop&lt;/h1&gt;" style="text;html=1;strokeColor=none;fillColor=none;spacing=5;spacingTop=-20;whiteSpace=wrap;overflow=hidden;rounded=0;align=right;" parent="1" vertex="1">
                    <mxGeometry x="600" y="40" width="200" height="40" as="geometry"/>
                </mxCell>
                <mxCell id="pAuYmlePvZ7gUMCXV7AC-2" style="edgeStyle=orthogonalEdgeStyle;rounded=0;orthogonalLoop=1;jettySize=auto;html=1;exitX=0.5;exitY=1;exitDx=0;exitDy=0;entryX=0.5;entryY=0;entryDx=0;entryDy=0;" parent="1" source="pAuYmlePvZ7gUMCXV7AC-1" target="GxrVGHx6pOc6Dc-y0MjW-15" edge="1">
                    <mxGeometry relative="1" as="geometry"/>
                </mxCell>
                <mxCell id="pAuYmlePvZ7gUMCXV7AC-1" value="command = system halt" style="rounded=0;whiteSpace=wrap;html=1;" parent="1" vertex="1">
                    <mxGeometry x="410" y="350" width="140" height="40" as="geometry"/>
                </mxCell>
                <mxCell id="pAuYmlePvZ7gUMCXV7AC-7" style="edgeStyle=orthogonalEdgeStyle;rounded=0;orthogonalLoop=1;jettySize=auto;html=1;exitX=0.5;exitY=1;exitDx=0;exitDy=0;entryX=0.5;entryY=0;entryDx=0;entryDy=0;" parent="1" source="pAuYmlePvZ7gUMCXV7AC-4" target="pAuYmlePvZ7gUMCXV7AC-5" edge="1">
                    <mxGeometry relative="1" as="geometry"/>
                </mxCell>
                <mxCell id="pAuYmlePvZ7gUMCXV7AC-4" value="command = diagnostic walkthrough" style="rounded=0;whiteSpace=wrap;html=1;" parent="1" vertex="1">
                    <mxGeometry x="205" y="100" width="140" height="40" as="geometry"/>
                </mxCell>
                <mxCell id="pAuYmlePvZ7gUMCXV7AC-8" style="edgeStyle=orthogonalEdgeStyle;rounded=0;orthogonalLoop=1;jettySize=auto;html=1;exitX=0.5;exitY=1;exitDx=0;exitDy=0;entryX=0.5;entryY=0;entryDx=0;entryDy=0;" parent="1" source="pAuYmlePvZ7gUMCXV7AC-5" target="GxrVGHx6pOc6Dc-y0MjW-6" edge="1">
                    <mxGeometry relative="1" as="geometry"/>
                </mxCell>
                <mxCell id="pAuYmlePvZ7gUMCXV7AC-5" value="&lt;a href=&quot;data:page/id,WO9AvToeDl4UmgfDawZ4&quot;&gt;Run Procedure Call&lt;/a&gt;" style="shape=process;whiteSpace=wrap;html=1;backgroundOutline=1;fillColor=#dae8fc;strokeColor=#6c8ebf;" parent="1" vertex="1">
                    <mxGeometry x="210" y="170" width="130" height="40" as="geometry"/>
                </mxCell>
            </root>
        </mxGraphModel>
    </diagram>
    <diagram name="Motor-System-Commands" id="rtuHvfN65sJRfW5IH7EF">
        &#xa;
        <mxGraphModel dx="1456" dy="1011" grid="1" gridSize="10" guides="1" tooltips="1" connect="1" arrows="1" fold="1" page="1" pageScale="1" pageWidth="850" pageHeight="1100" math="0" shadow="0">
            &#xa;
            <root>
                &#xa;
                <mxCell id="-O1TH0__Ji1m--z0gHS2-0"/>
                &#xa;
                <mxCell id="-O1TH0__Ji1m--z0gHS2-1" parent="-O1TH0__Ji1m--z0gHS2-0"/>
                &#xa;
                <mxCell id="h6c_YkRzVapyo3vWpTxy-5" style="edgeStyle=orthogonalEdgeStyle;rounded=0;orthogonalLoop=1;jettySize=auto;html=1;exitX=0.5;exitY=1;exitDx=0;exitDy=0;entryX=0.5;entryY=0;entryDx=0;entryDy=0;" parent="-O1TH0__Ji1m--z0gHS2-1" source="uj2teuNeeTlPXatF8ord-0" target="cBbPM5ZSALpEh0KQfGJq-0" edge="1">
                    &#xa;
                    <mxGeometry relative="1" as="geometry"/>
                    &#xa;
                </mxCell>
                &#xa;
                <mxCell id="uj2teuNeeTlPXatF8ord-0" value="Received command" style="rounded=1;whiteSpace=wrap;html=1;arcSize=50;fillColor=#d5e8d4;strokeColor=#82b366;" parent="-O1TH0__Ji1m--z0gHS2-1" vertex="1">
                    &#xa;
                    <mxGeometry x="459.75" y="40" width="90" height="40" as="geometry"/>
                    &#xa;
                </mxCell>
                &#xa;
                <mxCell id="cBbPM5ZSALpEh0KQfGJq-0" value="&lt;p style=&quot;line-height: 120%&quot;&gt;System is halted&lt;/p&gt;" style="rhombus;whiteSpace=wrap;html=1;spacing=20;spacingLeft=0;" parent="-O1TH0__Ji1m--z0gHS2-1" vertex="1">
                    &#xa;
                    <mxGeometry x="419.75" y="110" width="170" height="80" as="geometry"/>
                    &#xa;
                </mxCell>
                &#xa;
                <mxCell id="h6c_YkRzVapyo3vWpTxy-11" value="Doors or Roof" style="edgeStyle=orthogonalEdgeStyle;rounded=0;orthogonalLoop=1;jettySize=auto;html=1;exitX=0;exitY=0.5;exitDx=0;exitDy=0;entryX=0.5;entryY=0;entryDx=0;entryDy=0;" parent="-O1TH0__Ji1m--z0gHS2-1" source="cBbPM5ZSALpEh0KQfGJq-1" target="cBbPM5ZSALpEh0KQfGJq-2" edge="1">
                    &#xa;
                    <mxGeometry relative="1" as="geometry"/>
                    &#xa;
                </mxCell>
                &#xa;
                <mxCell id="h6c_YkRzVapyo3vWpTxy-12" value="Top or Bottom Pad" style="edgeStyle=orthogonalEdgeStyle;rounded=0;orthogonalLoop=1;jettySize=auto;html=1;exitX=1;exitY=0.5;exitDx=0;exitDy=0;entryX=0.5;entryY=0;entryDx=0;entryDy=0;" parent="-O1TH0__Ji1m--z0gHS2-1" source="cBbPM5ZSALpEh0KQfGJq-1" target="cBbPM5ZSALpEh0KQfGJq-3" edge="1">
                    &#xa;
                    <mxGeometry relative="1" as="geometry"/>
                    &#xa;
                </mxCell>
                &#xa;
                <mxCell id="cBbPM5ZSALpEh0KQfGJq-1" value="command" style="rhombus;whiteSpace=wrap;html=1;align=center;fillColor=#fff2cc;strokeColor=#d6b656;" parent="-O1TH0__Ji1m--z0gHS2-1" vertex="1">
                    &#xa;
                    <mxGeometry x="464.5" y="350" width="80" height="50" as="geometry"/>
                    &#xa;
                </mxCell>
                &#xa;
                <mxCell id="nQ4RWw9xGnM6f0aeAB-7-0" value="True" style="edgeStyle=orthogonalEdgeStyle;rounded=0;orthogonalLoop=1;jettySize=auto;html=1;exitX=1;exitY=0.5;exitDx=0;exitDy=0;" parent="-O1TH0__Ji1m--z0gHS2-1" source="cBbPM5ZSALpEh0KQfGJq-2" target="e1v5Ql0dO5nXcLP9Kj5L-0" edge="1">
                    &#xa;
                    <mxGeometry relative="1" as="geometry"/>
                    &#xa;
                </mxCell>
                &#xa;
                <mxCell id="nQ4RWw9xGnM6f0aeAB-7-3" style="edgeStyle=orthogonalEdgeStyle;rounded=0;orthogonalLoop=1;jettySize=auto;html=1;exitX=0.5;exitY=1;exitDx=0;exitDy=0;entryX=0;entryY=0.5;entryDx=0;entryDy=0;" parent="-O1TH0__Ji1m--z0gHS2-1" source="cBbPM5ZSALpEh0KQfGJq-2" target="XzNgTvK4eoRobayaPS_w-0" edge="1">
                    &#xa;
                    <mxGeometry relative="1" as="geometry">
                        &#xa;
                        <mxPoint x="449.75" y="605" as="targetPoint"/>
                        &#xa;
                    </mxGeometry>
                    &#xa;
                </mxCell>
                &#xa;
                <mxCell id="nQ4RWw9xGnM6f0aeAB-7-6" value="False" style="edgeLabel;html=1;align=center;verticalAlign=middle;resizable=0;points=[];" parent="nQ4RWw9xGnM6f0aeAB-7-3" vertex="1" connectable="0">
                    &#xa;
                    <mxGeometry x="-0.8643" relative="1" as="geometry">
                        &#xa;
                        <mxPoint as="offset"/>
                        &#xa;
                    </mxGeometry>
                    &#xa;
                </mxCell>
                &#xa;
                <mxCell id="cBbPM5ZSALpEh0KQfGJq-2" value="&lt;p style=&quot;line-height: 120%&quot;&gt;Associated pad is extended/raised&lt;/p&gt;" style="rhombus;whiteSpace=wrap;html=1;spacing=20;spacingLeft=0;fillColor=#fff2cc;strokeColor=#d6b656;" parent="-O1TH0__Ji1m--z0gHS2-1" vertex="1">
                    &#xa;
                    <mxGeometry x="199.75" y="410" width="170" height="80" as="geometry"/>
                    &#xa;
                </mxCell>
                &#xa;
                <mxCell id="nQ4RWw9xGnM6f0aeAB-7-1" value="True" style="edgeStyle=orthogonalEdgeStyle;rounded=0;orthogonalLoop=1;jettySize=auto;html=1;exitX=0;exitY=0.5;exitDx=0;exitDy=0;entryX=1;entryY=0.5;entryDx=0;entryDy=0;" parent="-O1TH0__Ji1m--z0gHS2-1" source="cBbPM5ZSALpEh0KQfGJq-3" target="e1v5Ql0dO5nXcLP9Kj5L-0" edge="1">
                    &#xa;
                    <mxGeometry relative="1" as="geometry"/>
                    &#xa;
                </mxCell>
                &#xa;
                <mxCell id="nQ4RWw9xGnM6f0aeAB-7-4" style="edgeStyle=orthogonalEdgeStyle;rounded=0;orthogonalLoop=1;jettySize=auto;html=1;exitX=0.5;exitY=1;exitDx=0;exitDy=0;entryX=1;entryY=0.5;entryDx=0;entryDy=0;" parent="-O1TH0__Ji1m--z0gHS2-1" source="cBbPM5ZSALpEh0KQfGJq-3" target="XzNgTvK4eoRobayaPS_w-0" edge="1">
                    &#xa;
                    <mxGeometry relative="1" as="geometry">
                        &#xa;
                        <mxPoint x="559.75" y="605" as="targetPoint"/>
                        &#xa;
                    </mxGeometry>
                    &#xa;
                </mxCell>
                &#xa;
                <mxCell id="nQ4RWw9xGnM6f0aeAB-7-5" value="False" style="edgeLabel;html=1;align=center;verticalAlign=middle;resizable=0;points=[];" parent="nQ4RWw9xGnM6f0aeAB-7-4" vertex="1" connectable="0">
                    &#xa;
                    <mxGeometry x="-0.8857" y="1" relative="1" as="geometry">
                        &#xa;
                        <mxPoint as="offset"/>
                        &#xa;
                    </mxGeometry>
                    &#xa;
                </mxCell>
                &#xa;
                <mxCell id="cBbPM5ZSALpEh0KQfGJq-3" value="Associated doors/roof &#10;is closed" style="rhombus;whiteSpace=wrap;spacing=20;spacingLeft=0;fillColor=#fff2cc;strokeColor=#d6b656;" parent="-O1TH0__Ji1m--z0gHS2-1" vertex="1">
                    &#xa;
                    <mxGeometry x="639.75" y="410" width="170" height="80" as="geometry"/>
                    &#xa;
                </mxCell>
                &#xa;
                <mxCell id="nQ4RWw9xGnM6f0aeAB-7-2" style="edgeStyle=orthogonalEdgeStyle;rounded=0;orthogonalLoop=1;jettySize=auto;html=1;exitX=0.5;exitY=1;exitDx=0;exitDy=0;entryX=0.5;entryY=0;entryDx=0;entryDy=0;" parent="-O1TH0__Ji1m--z0gHS2-1" source="e1v5Ql0dO5nXcLP9Kj5L-0" target="h6c_YkRzVapyo3vWpTxy-4" edge="1">
                    &#xa;
                    <mxGeometry relative="1" as="geometry"/>
                    &#xa;
                </mxCell>
                &#xa;
                <mxCell id="e1v5Ql0dO5nXcLP9Kj5L-0" value="Report impossible command to user" style="shape=parallelogram;perimeter=parallelogramPerimeter;whiteSpace=wrap;html=1;fixedSize=1;spacing=20;" parent="-O1TH0__Ji1m--z0gHS2-1" vertex="1">
                    &#xa;
                    <mxGeometry x="428.5" y="430" width="152.5" height="40" as="geometry"/>
                    &#xa;
                </mxCell>
                &#xa;
                <mxCell id="nQ4RWw9xGnM6f0aeAB-7-7" style="edgeStyle=orthogonalEdgeStyle;rounded=0;orthogonalLoop=1;jettySize=auto;html=1;exitX=0.5;exitY=1;exitDx=0;exitDy=0;entryX=0.5;entryY=0;entryDx=0;entryDy=0;" parent="-O1TH0__Ji1m--z0gHS2-1" target="h6c_YkRzVapyo3vWpTxy-3" edge="1">
                    &#xa;
                    <mxGeometry relative="1" as="geometry">
                        &#xa;
                        <mxPoint x="505.25" y="610" as="sourcePoint"/>
                        &#xa;
                    </mxGeometry>
                    &#xa;
                </mxCell>
                &#xa;
                <mxCell id="h6c_YkRzVapyo3vWpTxy-3" value="Completed Successfully" style="rounded=1;whiteSpace=wrap;html=1;arcSize=50;fillColor=#d5e8d4;strokeColor=#82b366;" parent="-O1TH0__Ji1m--z0gHS2-1" vertex="1">
                    &#xa;
                    <mxGeometry x="460" y="640" width="90" height="40" as="geometry"/>
                    &#xa;
                </mxCell>
                &#xa;
                <mxCell id="h6c_YkRzVapyo3vWpTxy-4" value="Completed Unsuccessfully" style="rounded=1;whiteSpace=wrap;html=1;arcSize=50;fillColor=#f8cecc;strokeColor=#b85450;" parent="-O1TH0__Ji1m--z0gHS2-1" vertex="1">
                    &#xa;
                    <mxGeometry x="459.5" y="500" width="90" height="40" as="geometry"/>
                    &#xa;
                </mxCell>
                &#xa;
                <mxCell id="h6c_YkRzVapyo3vWpTxy-8" value="Completed Unsuccessfully" style="rounded=1;whiteSpace=wrap;html=1;arcSize=50;fillColor=#f8cecc;strokeColor=#b85450;" parent="-O1TH0__Ji1m--z0gHS2-1" vertex="1">
                    &#xa;
                    <mxGeometry x="58.629999999999995" y="330" width="90" height="40" as="geometry"/>
                    &#xa;
                </mxCell>
                &#xa;
                <mxCell id="dQpThBMbojAITpI-ox4a-1" value="True" style="edgeStyle=orthogonalEdgeStyle;rounded=0;orthogonalLoop=1;jettySize=auto;html=1;exitX=0;exitY=0.5;exitDx=0;exitDy=0;entryX=0.5;entryY=0;entryDx=0;entryDy=0;" parent="-O1TH0__Ji1m--z0gHS2-1" source="MC1tm3NcPfzl4_C-0OXF-1" target="dQpThBMbojAITpI-ox4a-0" edge="1">
                    &#xa;
                    <mxGeometry x="-0.857" relative="1" as="geometry">
                        &#xa;
                        <mxPoint as="offset"/>
                        &#xa;
                    </mxGeometry>
                    &#xa;
                </mxCell>
                &#xa;
                <mxCell id="orHdDcaBBF6ZtySUlNwf-3" value="False" style="edgeStyle=orthogonalEdgeStyle;rounded=0;orthogonalLoop=1;jettySize=auto;html=1;exitX=0.5;exitY=1;exitDx=0;exitDy=0;entryX=0.5;entryY=0;entryDx=0;entryDy=0;" edge="1" parent="-O1TH0__Ji1m--z0gHS2-1" source="MC1tm3NcPfzl4_C-0OXF-1" target="orHdDcaBBF6ZtySUlNwf-0">
                    &#xa;
                    <mxGeometry relative="1" as="geometry"/>
                    &#xa;
                </mxCell>
                &#xa;
                <mxCell id="MC1tm3NcPfzl4_C-0OXF-1" value="&lt;p style=&quot;line-height: 120%&quot;&gt;System is halted&lt;/p&gt;" style="rhombus;whiteSpace=wrap;html=1;spacing=20;spacingLeft=0;fillColor=#fff2cc;strokeColor=#d6b656;" parent="-O1TH0__Ji1m--z0gHS2-1" vertex="1">
                    &#xa;
                    <mxGeometry x="419.75" y="110" width="170" height="80" as="geometry"/>
                    &#xa;
                </mxCell>
                &#xa;
                <mxCell id="YJqT528nx0_eEmUgt5k1-0" value="&lt;h1&gt;Motor System Commands&lt;/h1&gt;" style="text;html=1;strokeColor=none;fillColor=none;spacing=5;spacingTop=-20;whiteSpace=wrap;overflow=hidden;rounded=0;align=right;" parent="-O1TH0__Ji1m--z0gHS2-1" vertex="1">
                    &#xa;
                    <mxGeometry x="600" y="40" width="200" height="80" as="geometry"/>
                    &#xa;
                </mxCell>
                &#xa;
                <mxCell id="dQpThBMbojAITpI-ox4a-2" value="Warning" style="edgeStyle=orthogonalEdgeStyle;rounded=0;orthogonalLoop=1;jettySize=auto;html=1;exitX=0;exitY=0.5;exitDx=0;exitDy=0;entryX=1;entryY=0.5;entryDx=0;entryDy=0;" parent="-O1TH0__Ji1m--z0gHS2-1" source="p2gSVmPHXw0CIAiAeNxV-0" target="dQpThBMbojAITpI-ox4a-0" edge="1">
                    &#xa;
                    <mxGeometry x="-0.1241" relative="1" as="geometry">
                        &#xa;
                        <mxPoint as="offset"/>
                        &#xa;
                    </mxGeometry>
                    &#xa;
                </mxCell>
                &#xa;
                <mxCell id="orHdDcaBBF6ZtySUlNwf-6" value="Safe" style="edgeStyle=orthogonalEdgeStyle;rounded=0;orthogonalLoop=1;jettySize=auto;html=1;exitX=0.5;exitY=1;exitDx=0;exitDy=0;entryX=0.5;entryY=0;entryDx=0;entryDy=0;" edge="1" parent="-O1TH0__Ji1m--z0gHS2-1" source="p2gSVmPHXw0CIAiAeNxV-0" target="cBbPM5ZSALpEh0KQfGJq-1">
                    &#xa;
                    <mxGeometry x="-0.8473" relative="1" as="geometry">
                        &#xa;
                        <mxPoint as="offset"/>
                        &#xa;
                    </mxGeometry>
                    &#xa;
                </mxCell>
                &#xa;
                <mxCell id="p2gSVmPHXw0CIAiAeNxV-0" value="&lt;a href=&quot;data:page/id,NW1ys60D_21QKCZti7Hj&quot;&gt;Run Weather Evaluation&lt;/a&gt;" style="shape=process;whiteSpace=wrap;html=1;backgroundOutline=1;fillColor=#dae8fc;strokeColor=#6c8ebf;" parent="-O1TH0__Ji1m--z0gHS2-1" vertex="1">
                    &#xa;
                    <mxGeometry x="242.63" y="250" width="120" height="40" as="geometry"/>
                    &#xa;
                </mxCell>
                &#xa;
                <mxCell id="orHdDcaBBF6ZtySUlNwf-2" style="edgeStyle=orthogonalEdgeStyle;rounded=0;orthogonalLoop=1;jettySize=auto;html=1;exitX=0.5;exitY=1;exitDx=0;exitDy=0;entryX=0.5;entryY=0;entryDx=0;entryDy=0;" edge="1" parent="-O1TH0__Ji1m--z0gHS2-1" source="dQpThBMbojAITpI-ox4a-0" target="h6c_YkRzVapyo3vWpTxy-8">
                    &#xa;
                    <mxGeometry relative="1" as="geometry"/>
                    &#xa;
                </mxCell>
                &#xa;
                <mxCell id="dQpThBMbojAITpI-ox4a-0" value="Report cause of error to user" style="shape=parallelogram;perimeter=parallelogramPerimeter;whiteSpace=wrap;html=1;fixedSize=1;spacing=20;" parent="-O1TH0__Ji1m--z0gHS2-1" vertex="1">
                    &#xa;
                    <mxGeometry x="27.379999999999995" y="250" width="152.5" height="40" as="geometry"/>
                    &#xa;
                </mxCell>
                &#xa;
                <mxCell id="XzNgTvK4eoRobayaPS_w-0" value="Execute Motor Command" style="shape=process;whiteSpace=wrap;html=1;backgroundOutline=1;fillColor=#e1d5e7;strokeColor=#9673a6;" vertex="1" parent="-O1TH0__Ji1m--z0gHS2-1">
                    &#xa;
                    <mxGeometry x="445" y="570" width="120" height="40" as="geometry"/>
                    &#xa;
                </mxCell>
                &#xa;
                <mxCell id="orHdDcaBBF6ZtySUlNwf-4" value="True" style="edgeStyle=orthogonalEdgeStyle;rounded=0;orthogonalLoop=1;jettySize=auto;html=1;exitX=0;exitY=0.5;exitDx=0;exitDy=0;entryX=1;entryY=0.5;entryDx=0;entryDy=0;" edge="1" parent="-O1TH0__Ji1m--z0gHS2-1" source="orHdDcaBBF6ZtySUlNwf-0" target="p2gSVmPHXw0CIAiAeNxV-0">
                    &#xa;
                    <mxGeometry relative="1" as="geometry"/>
                    &#xa;
                </mxCell>
                &#xa;
                <mxCell id="orHdDcaBBF6ZtySUlNwf-5" value="False" style="edgeStyle=orthogonalEdgeStyle;rounded=0;orthogonalLoop=1;jettySize=auto;html=1;exitX=0.5;exitY=1;exitDx=0;exitDy=0;entryX=0.5;entryY=0;entryDx=0;entryDy=0;" edge="1" parent="-O1TH0__Ji1m--z0gHS2-1" source="orHdDcaBBF6ZtySUlNwf-0" target="cBbPM5ZSALpEh0KQfGJq-1">
                    &#xa;
                    <mxGeometry relative="1" as="geometry"/>
                    &#xa;
                </mxCell>
                &#xa;
                <mxCell id="orHdDcaBBF6ZtySUlNwf-0" value="Command to open or extend/raise" style="rhombus;whiteSpace=wrap;spacing=20;spacingLeft=0;fillColor=#fff2cc;strokeColor=#d6b656;" vertex="1" parent="-O1TH0__Ji1m--z0gHS2-1">
                    &#xa;
                    <mxGeometry x="419.5" y="230" width="170" height="80" as="geometry"/>
                    &#xa;
                </mxCell>
                &#xa;
            </root>
            &#xa;
        </mxGraphModel>
        &#xa;
    </diagram>
    <diagram name="Hardware-Power-Commands" id="fMjt44vwcyZgFf3OZV7Q">
        &#xa;
        <mxGraphModel dx="1456" dy="1011" grid="1" gridSize="10" guides="1" tooltips="1" connect="1" arrows="1" fold="1" page="1" pageScale="1" pageWidth="850" pageHeight="1100" math="0" shadow="0">
            &#xa;
            <root>
                &#xa;
                <mxCell id="gmzjneQvNUwlBSTDV4ju-0"/>
                &#xa;
                <mxCell id="gmzjneQvNUwlBSTDV4ju-1" parent="gmzjneQvNUwlBSTDV4ju-0"/>
                &#xa;
                <mxCell id="NQTb2DkxokPfQurM9OFz-1" style="edgeStyle=orthogonalEdgeStyle;rounded=0;orthogonalLoop=1;jettySize=auto;html=1;exitX=0.5;exitY=1;exitDx=0;exitDy=0;entryX=0.5;entryY=0;entryDx=0;entryDy=0;fontColor=#990000;" parent="gmzjneQvNUwlBSTDV4ju-1" source="4rA8GL22RLVUgljltE0x-0" target="hcRy3Z62feVdop8kEMMz-0" edge="1">
                    &#xa;
                    <mxGeometry relative="1" as="geometry"/>
                    &#xa;
                </mxCell>
                &#xa;
                <mxCell id="4rA8GL22RLVUgljltE0x-0" value="Received command" style="rounded=1;whiteSpace=wrap;html=1;arcSize=50;fillColor=#d5e8d4;strokeColor=#82b366;" parent="gmzjneQvNUwlBSTDV4ju-1" vertex="1">
                    &#xa;
                    <mxGeometry x="381.25" y="40" width="90" height="40" as="geometry"/>
                    &#xa;
                </mxCell>
                &#xa;
                <mxCell id="WrtgZDKhLLspmqbCAZTF-1" value="System Halt" style="edgeStyle=orthogonalEdgeStyle;rounded=0;orthogonalLoop=1;jettySize=auto;html=1;exitX=0;exitY=0.5;exitDx=0;exitDy=0;entryX=0.5;entryY=0;entryDx=0;entryDy=0;strokeColor=#000000;" parent="gmzjneQvNUwlBSTDV4ju-1" source="hcRy3Z62feVdop8kEMMz-0" edge="1">
                    &#xa;
                    <mxGeometry relative="1" as="geometry">
                        &#xa;
                        <mxPoint x="236.25" y="190" as="targetPoint"/>
                        &#xa;
                    </mxGeometry>
                    &#xa;
                </mxCell>
                &#xa;
                <mxCell id="qt0PwLkhmFrN0Qr6BREq-5" value="System Continue" style="edgeStyle=orthogonalEdgeStyle;rounded=0;orthogonalLoop=1;jettySize=auto;html=1;exitX=1;exitY=0.5;exitDx=0;exitDy=0;entryX=0.5;entryY=0;entryDx=0;entryDy=0;" parent="gmzjneQvNUwlBSTDV4ju-1" source="hcRy3Z62feVdop8kEMMz-0" edge="1">
                    &#xa;
                    <mxGeometry relative="1" as="geometry">
                        &#xa;
                        <mxPoint x="609.3699999999999" y="180" as="targetPoint"/>
                        &#xa;
                    </mxGeometry>
                    &#xa;
                </mxCell>
                &#xa;
                <mxCell id="hcRy3Z62feVdop8kEMMz-0" value="command" style="rhombus;whiteSpace=wrap;html=1;align=center;fillColor=#fff2cc;strokeColor=#d6b656;" parent="gmzjneQvNUwlBSTDV4ju-1" vertex="1">
                    &#xa;
                    <mxGeometry x="386.25" y="110" width="80" height="50" as="geometry"/>
                    &#xa;
                </mxCell>
                &#xa;
                <mxCell id="WrtgZDKhLLspmqbCAZTF-2" style="edgeStyle=orthogonalEdgeStyle;rounded=0;orthogonalLoop=1;jettySize=auto;html=1;exitX=0.5;exitY=1;exitDx=0;exitDy=0;entryX=0.5;entryY=0;entryDx=0;entryDy=0;strokeColor=#000000;fontColor=#000000;" parent="gmzjneQvNUwlBSTDV4ju-1" target="b7DBw7VLlRr9jDAgWlnK-0" edge="1">
                    &#xa;
                    <mxGeometry relative="1" as="geometry">
                        &#xa;
                        <mxPoint x="236.25" y="230" as="sourcePoint"/>
                        &#xa;
                    </mxGeometry>
                    &#xa;
                </mxCell>
                &#xa;
                <mxCell id="WrtgZDKhLLspmqbCAZTF-3" style="edgeStyle=orthogonalEdgeStyle;rounded=0;orthogonalLoop=1;jettySize=auto;html=1;exitX=0.5;exitY=1;exitDx=0;exitDy=0;entryX=0;entryY=0.5;entryDx=0;entryDy=0;strokeColor=#000000;fontColor=#000000;" parent="gmzjneQvNUwlBSTDV4ju-1" source="b7DBw7VLlRr9jDAgWlnK-0" target="NQTb2DkxokPfQurM9OFz-0" edge="1">
                    &#xa;
                    <mxGeometry relative="1" as="geometry"/>
                    &#xa;
                </mxCell>
                &#xa;
                <mxCell id="b7DBw7VLlRr9jDAgWlnK-0" value="Report successful system halt to user" style="shape=parallelogram;perimeter=parallelogramPerimeter;whiteSpace=wrap;html=1;fixedSize=1;spacing=20;" parent="gmzjneQvNUwlBSTDV4ju-1" vertex="1">
                    &#xa;
                    <mxGeometry x="160" y="260" width="152.5" height="40" as="geometry"/>
                    &#xa;
                </mxCell>
                &#xa;
                <mxCell id="WrtgZDKhLLspmqbCAZTF-17" style="edgeStyle=orthogonalEdgeStyle;rounded=0;orthogonalLoop=1;jettySize=auto;html=1;exitX=0;exitY=0;exitDx=75;exitDy=50;exitPerimeter=0;entryX=0.5;entryY=0;entryDx=0;entryDy=0;strokeColor=#000000;fontColor=#000000;" parent="gmzjneQvNUwlBSTDV4ju-1" source="b7DBw7VLlRr9jDAgWlnK-1" target="CO-t0a-6SAtUVBrYT07m-0" edge="1">
                    &#xa;
                    <mxGeometry relative="1" as="geometry"/>
                    &#xa;
                </mxCell>
                &#xa;
                <mxCell id="b7DBw7VLlRr9jDAgWlnK-1" value="Display keyword inside Nest Trailer" style="shape=display;whiteSpace=wrap;html=1;spacing=20;" parent="gmzjneQvNUwlBSTDV4ju-1" vertex="1">
                    &#xa;
                    <mxGeometry x="538.13" y="180" width="140" height="50" as="geometry"/>
                    &#xa;
                </mxCell>
                &#xa;
                <mxCell id="WrtgZDKhLLspmqbCAZTF-19" style="edgeStyle=orthogonalEdgeStyle;rounded=0;orthogonalLoop=1;jettySize=auto;html=1;exitX=0.5;exitY=1;exitDx=0;exitDy=0;entryX=0.5;entryY=0;entryDx=0;entryDy=0;strokeColor=#000000;fontColor=#000000;" parent="gmzjneQvNUwlBSTDV4ju-1" source="8BXamUDPJwa7OoGbpa55-0" target="CO-t0a-6SAtUVBrYT07m-1" edge="1">
                    &#xa;
                    <mxGeometry relative="1" as="geometry"/>
                    &#xa;
                </mxCell>
                &#xa;
                <mxCell id="8BXamUDPJwa7OoGbpa55-0" value="Require correct keyword input" style="shape=parallelogram;perimeter=parallelogramPerimeter;whiteSpace=wrap;html=1;fixedSize=1;spacing=20;" parent="gmzjneQvNUwlBSTDV4ju-1" vertex="1">
                    &#xa;
                    <mxGeometry x="531.9" y="380" width="152.5" height="40" as="geometry"/>
                    &#xa;
                </mxCell>
                &#xa;
                <mxCell id="WrtgZDKhLLspmqbCAZTF-18" value="False" style="edgeStyle=orthogonalEdgeStyle;rounded=0;orthogonalLoop=1;jettySize=auto;html=1;exitX=0.5;exitY=1;exitDx=0;exitDy=0;entryX=0.5;entryY=0;entryDx=0;entryDy=0;strokeColor=#000000;fontColor=#000000;" parent="gmzjneQvNUwlBSTDV4ju-1" source="CO-t0a-6SAtUVBrYT07m-0" target="8BXamUDPJwa7OoGbpa55-0" edge="1">
                    &#xa;
                    <mxGeometry relative="1" as="geometry"/>
                    &#xa;
                </mxCell>
                &#xa;
                <mxCell id="WrtgZDKhLLspmqbCAZTF-20" style="edgeStyle=orthogonalEdgeStyle;rounded=0;orthogonalLoop=1;jettySize=auto;html=1;exitX=0;exitY=0.5;exitDx=0;exitDy=0;entryX=0.5;entryY=0;entryDx=0;entryDy=0;strokeColor=#000000;fontColor=#000000;" parent="gmzjneQvNUwlBSTDV4ju-1" source="CO-t0a-6SAtUVBrYT07m-0" target="A9Wu-IX-naHm1p0d_YPg-4" edge="1">
                    &#xa;
                    <mxGeometry relative="1" as="geometry"/>
                    &#xa;
                </mxCell>
                &#xa;
                <mxCell id="WrtgZDKhLLspmqbCAZTF-21" value="True" style="edgeLabel;html=1;align=center;verticalAlign=middle;resizable=0;points=[];fontColor=#000000;" parent="WrtgZDKhLLspmqbCAZTF-20" vertex="1" connectable="0">
                    &#xa;
                    <mxGeometry x="-0.8796" y="-3" relative="1" as="geometry">
                        &#xa;
                        <mxPoint as="offset"/>
                        &#xa;
                    </mxGeometry>
                    &#xa;
                </mxCell>
                &#xa;
                <mxCell id="CO-t0a-6SAtUVBrYT07m-0" value="User cancels command" style="rhombus;whiteSpace=wrap;spacing=20;spacingLeft=0;fillColor=#fff2cc;strokeColor=#d6b656;" parent="gmzjneQvNUwlBSTDV4ju-1" vertex="1">
                    &#xa;
                    <mxGeometry x="523.02" y="260" width="170" height="80" as="geometry"/>
                    &#xa;
                </mxCell>
                &#xa;
                <mxCell id="WrtgZDKhLLspmqbCAZTF-7" style="edgeStyle=orthogonalEdgeStyle;rounded=0;orthogonalLoop=1;jettySize=auto;html=1;exitX=0.5;exitY=1;exitDx=0;exitDy=0;entryX=0.5;entryY=0;entryDx=0;entryDy=0;strokeColor=#000000;fontColor=#000000;" parent="gmzjneQvNUwlBSTDV4ju-1" source="CO-t0a-6SAtUVBrYT07m-1" target="A9Wu-IX-naHm1p0d_YPg-0" edge="1">
                    &#xa;
                    <mxGeometry relative="1" as="geometry"/>
                    &#xa;
                </mxCell>
                &#xa;
                <mxCell id="CO-t0a-6SAtUVBrYT07m-1" value="Request desired continue state from user" style="shape=parallelogram;perimeter=parallelogramPerimeter;whiteSpace=wrap;html=1;fixedSize=1;spacing=20;" parent="gmzjneQvNUwlBSTDV4ju-1" vertex="1">
                    &#xa;
                    <mxGeometry x="520" y="450" width="176.25" height="40" as="geometry"/>
                    &#xa;
                </mxCell>
                &#xa;
                <mxCell id="WrtgZDKhLLspmqbCAZTF-8" value="False" style="edgeStyle=orthogonalEdgeStyle;rounded=0;orthogonalLoop=1;jettySize=auto;html=1;exitX=0.5;exitY=1;exitDx=0;exitDy=0;entryX=0.5;entryY=0;entryDx=0;entryDy=0;strokeColor=#000000;fontColor=#000000;" parent="gmzjneQvNUwlBSTDV4ju-1" source="A9Wu-IX-naHm1p0d_YPg-0" edge="1">
                    &#xa;
                    <mxGeometry relative="1" as="geometry">
                        &#xa;
                        <mxPoint x="608.145" y="640" as="targetPoint"/>
                        &#xa;
                    </mxGeometry>
                    &#xa;
                </mxCell>
                &#xa;
                <mxCell id="WrtgZDKhLLspmqbCAZTF-12" style="edgeStyle=orthogonalEdgeStyle;rounded=0;orthogonalLoop=1;jettySize=auto;html=1;exitX=0;exitY=0.5;exitDx=0;exitDy=0;entryX=0.5;entryY=0;entryDx=0;entryDy=0;strokeColor=#000000;fontColor=#000000;" parent="gmzjneQvNUwlBSTDV4ju-1" source="A9Wu-IX-naHm1p0d_YPg-0" target="A9Wu-IX-naHm1p0d_YPg-4" edge="1">
                    &#xa;
                    <mxGeometry relative="1" as="geometry"/>
                    &#xa;
                </mxCell>
                &#xa;
                <mxCell id="WrtgZDKhLLspmqbCAZTF-15" value="True" style="edgeLabel;html=1;align=center;verticalAlign=middle;resizable=0;points=[];fontColor=#000000;" parent="WrtgZDKhLLspmqbCAZTF-12" vertex="1" connectable="0">
                    &#xa;
                    <mxGeometry x="-0.6468" relative="1" as="geometry">
                        &#xa;
                        <mxPoint as="offset"/>
                        &#xa;
                    </mxGeometry>
                    &#xa;
                </mxCell>
                &#xa;
                <mxCell id="A9Wu-IX-naHm1p0d_YPg-0" value="User cancels command" style="rhombus;whiteSpace=wrap;spacing=20;spacingLeft=0;fillColor=#fff2cc;strokeColor=#d6b656;" parent="gmzjneQvNUwlBSTDV4ju-1" vertex="1">
                    &#xa;
                    <mxGeometry x="523.14" y="520" width="170" height="80" as="geometry"/>
                    &#xa;
                </mxCell>
                &#xa;
                <mxCell id="WrtgZDKhLLspmqbCAZTF-9" style="edgeStyle=orthogonalEdgeStyle;rounded=0;orthogonalLoop=1;jettySize=auto;html=1;exitX=0.5;exitY=1;exitDx=0;exitDy=0;entryX=0.5;entryY=0;entryDx=0;entryDy=0;strokeColor=#000000;fontColor=#000000;" parent="gmzjneQvNUwlBSTDV4ju-1" edge="1">
                    &#xa;
                    <mxGeometry relative="1" as="geometry">
                        &#xa;
                        <mxPoint x="608.1199999999999" y="710" as="targetPoint"/>
                        &#xa;
                        <mxPoint x="608.145" y="680" as="sourcePoint"/>
                        &#xa;
                    </mxGeometry>
                    &#xa;
                </mxCell>
                &#xa;
                <mxCell id="WrtgZDKhLLspmqbCAZTF-11" style="edgeStyle=orthogonalEdgeStyle;rounded=0;orthogonalLoop=1;jettySize=auto;html=1;exitX=0.5;exitY=1;exitDx=0;exitDy=0;entryX=1;entryY=0.5;entryDx=0;entryDy=0;strokeColor=#000000;fontColor=#000000;" parent="gmzjneQvNUwlBSTDV4ju-1" source="A9Wu-IX-naHm1p0d_YPg-3" target="NQTb2DkxokPfQurM9OFz-0" edge="1">
                    &#xa;
                    <mxGeometry relative="1" as="geometry"/>
                    &#xa;
                </mxCell>
                &#xa;
                <mxCell id="A9Wu-IX-naHm1p0d_YPg-3" value="Report successful system continue to user" style="shape=parallelogram;perimeter=parallelogramPerimeter;whiteSpace=wrap;html=1;fixedSize=1;spacing=20;" parent="gmzjneQvNUwlBSTDV4ju-1" vertex="1">
                    &#xa;
                    <mxGeometry x="526.27" y="780" width="166.25" height="40" as="geometry"/>
                    &#xa;
                </mxCell>
                &#xa;
                <mxCell id="OGLr49NDsNUip2vpse95-1" style="edgeStyle=orthogonalEdgeStyle;rounded=0;orthogonalLoop=1;jettySize=auto;html=1;exitX=0.5;exitY=1;exitDx=0;exitDy=0;entryX=0.5;entryY=0;entryDx=0;entryDy=0;" parent="gmzjneQvNUwlBSTDV4ju-1" source="A9Wu-IX-naHm1p0d_YPg-4" target="OGLr49NDsNUip2vpse95-0" edge="1">
                    &#xa;
                    <mxGeometry relative="1" as="geometry"/>
                    &#xa;
                </mxCell>
                &#xa;
                <mxCell id="A9Wu-IX-naHm1p0d_YPg-4" value="Report canceled system continue to user" style="shape=parallelogram;perimeter=parallelogramPerimeter;whiteSpace=wrap;html=1;fixedSize=1;spacing=20;" parent="gmzjneQvNUwlBSTDV4ju-1" vertex="1">
                    &#xa;
                    <mxGeometry x="340" y="600" width="170" height="40" as="geometry"/>
                    &#xa;
                </mxCell>
                &#xa;
                <mxCell id="NQTb2DkxokPfQurM9OFz-0" value="Completed Successfully" style="rounded=1;whiteSpace=wrap;html=1;arcSize=50;fillColor=#d5e8d4;strokeColor=#82b366;" parent="gmzjneQvNUwlBSTDV4ju-1" vertex="1">
                    &#xa;
                    <mxGeometry x="381.25" y="840" width="90" height="40" as="geometry"/>
                    &#xa;
                </mxCell>
                &#xa;
                <mxCell id="nwiTR5TzhFEO4ZPXVSlk-0" value="&lt;h1&gt;Hardware Power Commands&lt;/h1&gt;" style="text;html=1;strokeColor=none;fillColor=none;spacing=5;spacingTop=-20;whiteSpace=wrap;overflow=hidden;rounded=0;align=right;" parent="gmzjneQvNUwlBSTDV4ju-1" vertex="1">
                    &#xa;
                    <mxGeometry x="600" y="40" width="200" height="80" as="geometry"/>
                    &#xa;
                </mxCell>
                &#xa;
                <mxCell id="OGLr49NDsNUip2vpse95-0" value="Terminated Early" style="rounded=1;whiteSpace=wrap;html=1;arcSize=50;fillColor=#ffe6cc;strokeColor=#d79b00;" parent="gmzjneQvNUwlBSTDV4ju-1" vertex="1">
                    &#xa;
                    <mxGeometry x="381.25" y="670" width="90" height="40" as="geometry"/>
                    &#xa;
                </mxCell>
                &#xa;
                <mxCell id="95vHlcNHKPGqf3OBvVd6-1" style="edgeStyle=orthogonalEdgeStyle;rounded=0;orthogonalLoop=1;jettySize=auto;html=1;exitX=0.5;exitY=1;exitDx=0;exitDy=0;entryX=0.5;entryY=0;entryDx=0;entryDy=0;" parent="gmzjneQvNUwlBSTDV4ju-1" target="A9Wu-IX-naHm1p0d_YPg-3" edge="1">
                    &#xa;
                    <mxGeometry relative="1" as="geometry">
                        &#xa;
                        <mxPoint x="608.02" y="750" as="sourcePoint"/>
                        &#xa;
                    </mxGeometry>
                    &#xa;
                </mxCell>
                &#xa;
                <mxCell id="ntFk3NjbgEtEXfAxlpvm-0" value="Shutdown power to motor systems" style="shape=process;whiteSpace=wrap;html=1;backgroundOutline=1;fillColor=#e1d5e7;strokeColor=#9673a6;" vertex="1" parent="gmzjneQvNUwlBSTDV4ju-1">
                    &#xa;
                    <mxGeometry x="176.25" y="190" width="120" height="40" as="geometry"/>
                    &#xa;
                </mxCell>
                &#xa;
                <mxCell id="ntFk3NjbgEtEXfAxlpvm-2" value="Resume power to motor systems" style="shape=process;whiteSpace=wrap;html=1;backgroundOutline=1;fillColor=#e1d5e7;strokeColor=#9673a6;" vertex="1" parent="gmzjneQvNUwlBSTDV4ju-1">
                    &#xa;
                    <mxGeometry x="548.02" y="710" width="120" height="40" as="geometry"/>
                    &#xa;
                </mxCell>
                &#xa;
                <mxCell id="ntFk3NjbgEtEXfAxlpvm-3" value="Set desired hardware config" style="shape=process;whiteSpace=wrap;html=1;backgroundOutline=1;fillColor=#e1d5e7;strokeColor=#9673a6;" vertex="1" parent="gmzjneQvNUwlBSTDV4ju-1">
                    &#xa;
                    <mxGeometry x="549.4" y="640" width="120" height="40" as="geometry"/>
                    &#xa;
                </mxCell>
                &#xa;
            </root>
            &#xa;
        </mxGraphModel>
        &#xa;
    </diagram>
    <diagram name="Procedure-Calls" id="WO9AvToeDl4UmgfDawZ4">
        <mxGraphModel dx="1106" dy="753" grid="1" gridSize="10" guides="1" tooltips="1" connect="1" arrows="1" fold="1" page="1" pageScale="1" pageWidth="850" pageHeight="1100" math="0" shadow="0">
            <root>
                <mxCell id="GJmxOpB8FPE3G95XITca-0"/>
                <mxCell id="GJmxOpB8FPE3G95XITca-1" parent="GJmxOpB8FPE3G95XITca-0"/>
                <mxCell id="DzdXPj5u7h7ugojrCoIu-0" style="edgeStyle=orthogonalEdgeStyle;rounded=0;orthogonalLoop=1;jettySize=auto;html=1;exitX=0.5;exitY=1;exitDx=0;exitDy=0;entryX=0.5;entryY=0;entryDx=0;entryDy=0;" parent="GJmxOpB8FPE3G95XITca-1" target="DzdXPj5u7h7ugojrCoIu-3" edge="1">
                    <mxGeometry relative="1" as="geometry">
                        <mxPoint x="403.75" y="80" as="sourcePoint"/>
                    </mxGeometry>
                </mxCell>
                <mxCell id="DzdXPj5u7h7ugojrCoIu-1" value="Received Procedure Call" style="rounded=1;whiteSpace=wrap;html=1;arcSize=50;fillColor=#d5e8d4;strokeColor=#82b366;" parent="GJmxOpB8FPE3G95XITca-1" vertex="1">
                    <mxGeometry x="338.75" y="40" width="90" height="40" as="geometry"/>
                </mxCell>
                <mxCell id="DzdXPj5u7h7ugojrCoIu-2" value="True" style="edgeStyle=orthogonalEdgeStyle;rounded=0;orthogonalLoop=1;jettySize=auto;html=1;exitX=1;exitY=0.5;exitDx=0;exitDy=0;entryX=0;entryY=0.5;entryDx=0;entryDy=0;" parent="GJmxOpB8FPE3G95XITca-1" source="DzdXPj5u7h7ugojrCoIu-3" target="DzdXPj5u7h7ugojrCoIu-5" edge="1">
                    <mxGeometry relative="1" as="geometry"/>
                </mxCell>
                <mxCell id="DzdXPj5u7h7ugojrCoIu-3" value="&lt;p style=&quot;line-height: 120%&quot;&gt;System is halted&lt;/p&gt;" style="rhombus;whiteSpace=wrap;html=1;spacing=20;spacingLeft=0;" parent="GJmxOpB8FPE3G95XITca-1" vertex="1">
                    <mxGeometry x="298.75" y="110" width="170" height="80" as="geometry"/>
                </mxCell>
                <mxCell id="3HNz-cHDdw3Unk86fgWz-4" style="edgeStyle=orthogonalEdgeStyle;rounded=0;orthogonalLoop=1;jettySize=auto;html=1;exitX=0.5;exitY=1;exitDx=0;exitDy=0;entryX=0.5;entryY=0;entryDx=0;entryDy=0;strokeColor=#000000;fontColor=#000000;" parent="GJmxOpB8FPE3G95XITca-1" source="DzdXPj5u7h7ugojrCoIu-5" target="DzdXPj5u7h7ugojrCoIu-6" edge="1">
                    <mxGeometry relative="1" as="geometry"/>
                </mxCell>
                <mxCell id="DzdXPj5u7h7ugojrCoIu-5" value="Report system halt to user" style="shape=parallelogram;perimeter=parallelogramPerimeter;whiteSpace=wrap;html=1;fixedSize=1;spacing=20;" parent="GJmxOpB8FPE3G95XITca-1" vertex="1">
                    <mxGeometry x="527.5" y="130" width="152.5" height="40" as="geometry"/>
                </mxCell>
                <mxCell id="DzdXPj5u7h7ugojrCoIu-6" value="Completed Unsuccessfully" style="rounded=1;whiteSpace=wrap;html=1;arcSize=50;fillColor=#f8cecc;strokeColor=#b85450;" parent="GJmxOpB8FPE3G95XITca-1" vertex="1">
                    <mxGeometry x="558.75" y="200" width="90" height="40" as="geometry"/>
                </mxCell>
                <mxCell id="jsLaCl5lP8pqXFVeOQ6o-4" value="False" style="edgeStyle=orthogonalEdgeStyle;rounded=0;orthogonalLoop=1;jettySize=auto;html=1;exitX=0.5;exitY=1;exitDx=0;exitDy=0;entryX=0.5;entryY=0;entryDx=0;entryDy=0;strokeColor=#000000;fontColor=#000000;" parent="GJmxOpB8FPE3G95XITca-1" source="DzdXPj5u7h7ugojrCoIu-7" target="KBai8TUxIAYsCfd5PL7Z-0" edge="1">
                    <mxGeometry relative="1" as="geometry"/>
                </mxCell>
                <mxCell id="DzdXPj5u7h7ugojrCoIu-7" value="&lt;p style=&quot;line-height: 120%&quot;&gt;System is halted&lt;/p&gt;" style="rhombus;whiteSpace=wrap;html=1;spacing=20;spacingLeft=0;fillColor=#fff2cc;strokeColor=#d6b656;" parent="GJmxOpB8FPE3G95XITca-1" vertex="1">
                    <mxGeometry x="298.75" y="110" width="170" height="80" as="geometry"/>
                </mxCell>
                <mxCell id="KBai8TUxIAYsCfd5PL7Z-4" value="True" style="edgeStyle=orthogonalEdgeStyle;rounded=0;orthogonalLoop=1;jettySize=auto;html=1;exitX=1;exitY=0.5;exitDx=0;exitDy=0;entryX=0;entryY=0.5;entryDx=0;entryDy=0;strokeColor=#000000;fontColor=#000000;" parent="GJmxOpB8FPE3G95XITca-1" source="KBai8TUxIAYsCfd5PL7Z-0" target="KBai8TUxIAYsCfd5PL7Z-1" edge="1">
                    <mxGeometry relative="1" as="geometry"/>
                </mxCell>
                <mxCell id="jsLaCl5lP8pqXFVeOQ6o-3" value="False" style="edgeStyle=orthogonalEdgeStyle;rounded=0;orthogonalLoop=1;jettySize=auto;html=1;exitX=0.5;exitY=1;exitDx=0;exitDy=0;entryX=0.5;entryY=0;entryDx=0;entryDy=0;strokeColor=#000000;fontColor=#000000;" parent="GJmxOpB8FPE3G95XITca-1" source="KBai8TUxIAYsCfd5PL7Z-0" target="x6WMY1jDjSQ1IGOBjLkl-0" edge="1">
                    <mxGeometry relative="1" as="geometry"/>
                </mxCell>
                <mxCell id="KBai8TUxIAYsCfd5PL7Z-0" value="A hardware system is&#10;in progress" style="rhombus;whiteSpace=wrap;spacing=20;spacingLeft=0;fillColor=#fff2cc;strokeColor=#d6b656;" parent="GJmxOpB8FPE3G95XITca-1" vertex="1">
                    <mxGeometry x="298.75" y="250" width="170" height="80" as="geometry"/>
                </mxCell>
                <mxCell id="3HNz-cHDdw3Unk86fgWz-3" style="edgeStyle=orthogonalEdgeStyle;rounded=0;orthogonalLoop=1;jettySize=auto;html=1;exitX=0.5;exitY=0;exitDx=0;exitDy=0;entryX=0.5;entryY=1;entryDx=0;entryDy=0;strokeColor=#000000;fontColor=#000000;" parent="GJmxOpB8FPE3G95XITca-1" source="KBai8TUxIAYsCfd5PL7Z-1" target="DzdXPj5u7h7ugojrCoIu-6" edge="1">
                    <mxGeometry relative="1" as="geometry"/>
                </mxCell>
                <mxCell id="KBai8TUxIAYsCfd5PL7Z-1" value="Report unable to run procedure to user" style="shape=parallelogram;perimeter=parallelogramPerimeter;whiteSpace=wrap;html=1;fixedSize=1;spacing=20;" parent="GJmxOpB8FPE3G95XITca-1" vertex="1">
                    <mxGeometry x="527.5" y="270" width="152.5" height="40" as="geometry"/>
                </mxCell>
                <mxCell id="WM_Ayn4hG5Dd2GYoDGEZ-3" value="Drone Mission" style="edgeStyle=orthogonalEdgeStyle;rounded=0;orthogonalLoop=1;jettySize=auto;html=1;exitX=1;exitY=0.5;exitDx=0;exitDy=0;entryX=0.5;entryY=0;entryDx=0;entryDy=0;strokeColor=#000000;fontColor=#000000;" parent="GJmxOpB8FPE3G95XITca-1" source="x6WMY1jDjSQ1IGOBjLkl-0" target="lHtn53vR3gggctqYZO0n-0" edge="1">
                    <mxGeometry x="-0.0998" relative="1" as="geometry">
                        <mxPoint as="offset"/>
                    </mxGeometry>
                </mxCell>
                <mxCell id="jsLaCl5lP8pqXFVeOQ6o-1" value="Diagnostic Walkthrough" style="edgeStyle=orthogonalEdgeStyle;rounded=0;orthogonalLoop=1;jettySize=auto;html=1;exitX=0;exitY=0.5;exitDx=0;exitDy=0;entryX=0.5;entryY=0;entryDx=0;entryDy=0;strokeColor=#000000;fontColor=#000000;" parent="GJmxOpB8FPE3G95XITca-1" source="x6WMY1jDjSQ1IGOBjLkl-0" target="jsLaCl5lP8pqXFVeOQ6o-0" edge="1">
                    <mxGeometry x="-0.1702" relative="1" as="geometry">
                        <mxPoint as="offset"/>
                    </mxGeometry>
                </mxCell>
                <mxCell id="x6WMY1jDjSQ1IGOBjLkl-0" value="Procedure Call" style="rhombus;whiteSpace=wrap;html=1;align=center;fillColor=#fff2cc;strokeColor=#d6b656;spacing=20;" parent="GJmxOpB8FPE3G95XITca-1" vertex="1">
                    <mxGeometry x="336.75" y="360" width="95" height="60" as="geometry"/>
                </mxCell>
                <mxCell id="5wianiTRNyT7YEeXoo-0-0" style="edgeStyle=orthogonalEdgeStyle;rounded=0;orthogonalLoop=1;jettySize=auto;html=1;exitX=0;exitY=0.5;exitDx=0;exitDy=0;strokeColor=#000000;fontColor=#000000;" parent="GJmxOpB8FPE3G95XITca-1" source="lHtn53vR3gggctqYZO0n-0" target="3HNz-cHDdw3Unk86fgWz-2" edge="1">
                    <mxGeometry relative="1" as="geometry"/>
                </mxCell>
                <mxCell id="5wianiTRNyT7YEeXoo-0-18" value="Warning" style="edgeLabel;html=1;align=center;verticalAlign=middle;resizable=0;points=[];fontColor=#000000;" parent="5wianiTRNyT7YEeXoo-0-0" vertex="1" connectable="0">
                    <mxGeometry x="-0.876" y="2" relative="1" as="geometry">
                        <mxPoint x="-19.25" y="-2" as="offset"/>
                    </mxGeometry>
                </mxCell>
                <mxCell id="5wianiTRNyT7YEeXoo-0-3" value="Safe" style="edgeStyle=orthogonalEdgeStyle;rounded=0;orthogonalLoop=1;jettySize=auto;html=1;exitX=0.5;exitY=1;exitDx=0;exitDy=0;entryX=0.5;entryY=0;entryDx=0;entryDy=0;strokeColor=#000000;fontColor=#000000;" parent="GJmxOpB8FPE3G95XITca-1" source="lHtn53vR3gggctqYZO0n-0" target="lHtn53vR3gggctqYZO0n-1" edge="1">
                    <mxGeometry relative="1" as="geometry"/>
                </mxCell>
                <mxCell id="lHtn53vR3gggctqYZO0n-0" value="&lt;a href=&quot;data:page/id,NW1ys60D_21QKCZti7Hj&quot;&gt;Run Weather Evaluation&lt;/a&gt;" style="shape=process;whiteSpace=wrap;html=1;backgroundOutline=1;fillColor=#dae8fc;strokeColor=#6c8ebf;" parent="GJmxOpB8FPE3G95XITca-1" vertex="1">
                    <mxGeometry x="510" y="420" width="120" height="40" as="geometry"/>
                </mxCell>
                <mxCell id="5wianiTRNyT7YEeXoo-0-19" style="edgeStyle=orthogonalEdgeStyle;rounded=0;orthogonalLoop=1;jettySize=auto;html=1;exitX=0;exitY=0.5;exitDx=0;exitDy=0;entryX=0.5;entryY=0;entryDx=0;entryDy=0;strokeColor=#000000;fontColor=#000000;" parent="GJmxOpB8FPE3G95XITca-1" source="lHtn53vR3gggctqYZO0n-1" target="3HNz-cHDdw3Unk86fgWz-2" edge="1">
                    <mxGeometry relative="1" as="geometry"/>
                </mxCell>
                <mxCell id="5wianiTRNyT7YEeXoo-0-20" value="Unsuccessful" style="edgeLabel;html=1;align=center;verticalAlign=middle;resizable=0;points=[];fontColor=#000000;" parent="5wianiTRNyT7YEeXoo-0-19" vertex="1" connectable="0">
                    <mxGeometry x="-0.7654" y="-1" relative="1" as="geometry">
                        <mxPoint x="-0.25" y="1" as="offset"/>
                    </mxGeometry>
                </mxCell>
                <mxCell id="cN4fscKyVLEvIAuWlpLt-2" style="edgeStyle=orthogonalEdgeStyle;rounded=0;orthogonalLoop=1;jettySize=auto;html=1;exitX=1;exitY=0.5;exitDx=0;exitDy=0;entryX=0.5;entryY=0;entryDx=0;entryDy=0;" parent="GJmxOpB8FPE3G95XITca-1" source="lHtn53vR3gggctqYZO0n-1" target="7SvlUcawCfz9gkhUnccX-0" edge="1">
                    <mxGeometry relative="1" as="geometry"/>
                </mxCell>
                <mxCell id="cN4fscKyVLEvIAuWlpLt-4" value="Terminated" style="edgeLabel;html=1;align=center;verticalAlign=middle;resizable=0;points=[];" parent="cN4fscKyVLEvIAuWlpLt-2" vertex="1" connectable="0">
                    <mxGeometry x="-0.612" y="3" relative="1" as="geometry">
                        <mxPoint x="18" y="3" as="offset"/>
                    </mxGeometry>
                </mxCell>
                <mxCell id="NFHCG4BtGcSYhilHYb7W-1" value="Success" style="edgeStyle=orthogonalEdgeStyle;rounded=0;orthogonalLoop=1;jettySize=auto;html=1;exitX=0.5;exitY=1;exitDx=0;exitDy=0;entryX=0.5;entryY=0;entryDx=0;entryDy=0;" parent="GJmxOpB8FPE3G95XITca-1" source="lHtn53vR3gggctqYZO0n-1" target="sNQVrA7brI-a_P8DkKUO-0" edge="1">
                    <mxGeometry relative="1" as="geometry"/>
                </mxCell>
                <mxCell id="lHtn53vR3gggctqYZO0n-1" value="&lt;a href=&quot;data:page/id,3RYjdV1VzT-5Tz3Iotj4&quot;&gt;Run Take-off Preparation&lt;/a&gt;" style="shape=process;whiteSpace=wrap;html=1;backgroundOutline=1;fillColor=#dae8fc;strokeColor=#6c8ebf;" parent="GJmxOpB8FPE3G95XITca-1" vertex="1">
                    <mxGeometry x="510" y="490" width="120" height="40" as="geometry"/>
                </mxCell>
                <mxCell id="5wianiTRNyT7YEeXoo-0-17" style="edgeStyle=orthogonalEdgeStyle;rounded=0;orthogonalLoop=1;jettySize=auto;html=1;exitX=0.5;exitY=1;exitDx=0;exitDy=0;entryX=0.5;entryY=0;entryDx=0;entryDy=0;strokeColor=#000000;fontColor=#000000;" parent="GJmxOpB8FPE3G95XITca-1" source="SFeeQmNfMo5vog98wkyi-0" target="5wianiTRNyT7YEeXoo-0-10" edge="1">
                    <mxGeometry relative="1" as="geometry"/>
                </mxCell>
                <mxCell id="SFeeQmNfMo5vog98wkyi-0" value="Await drone landing request" style="rounded=0;whiteSpace=wrap;html=1;" parent="GJmxOpB8FPE3G95XITca-1" vertex="1">
                    <mxGeometry x="515" y="625" width="110" height="40" as="geometry"/>
                </mxCell>
                <mxCell id="SFeeQmNfMo5vog98wkyi-1" value="Run Drone Landing" style="shape=process;whiteSpace=wrap;html=1;backgroundOutline=1;fillColor=#dae8fc;strokeColor=#6c8ebf;" parent="GJmxOpB8FPE3G95XITca-1" vertex="1">
                    <mxGeometry x="510" y="695" width="120" height="40" as="geometry"/>
                </mxCell>
                <mxCell id="YLyYQZg7OhlCUBvkqf2Q-0" value="" style="edgeStyle=orthogonalEdgeStyle;rounded=0;orthogonalLoop=1;jettySize=auto;html=1;exitX=0.5;exitY=1;exitDx=0;exitDy=0;entryX=1;entryY=0.5;entryDx=0;entryDy=0;" parent="GJmxOpB8FPE3G95XITca-1" source="3HNz-cHDdw3Unk86fgWz-1" target="WM_Ayn4hG5Dd2GYoDGEZ-0" edge="1">
                    <mxGeometry x="-0.8723" relative="1" as="geometry">
                        <mxPoint as="offset"/>
                    </mxGeometry>
                </mxCell>
                <mxCell id="3HNz-cHDdw3Unk86fgWz-1" value="&lt;a href=&quot;data:page/id,yRxL0HJrPYs7oAlfiCPA&quot;&gt;Run Battery Exchange&lt;/a&gt;" style="shape=process;whiteSpace=wrap;html=1;backgroundOutline=1;fillColor=#dae8fc;strokeColor=#6c8ebf;" parent="GJmxOpB8FPE3G95XITca-1" vertex="1">
                    <mxGeometry x="510" y="775" width="120" height="40" as="geometry"/>
                </mxCell>
                <mxCell id="5wianiTRNyT7YEeXoo-0-29" style="edgeStyle=orthogonalEdgeStyle;rounded=0;orthogonalLoop=1;jettySize=auto;html=1;exitX=0.5;exitY=1;exitDx=0;exitDy=0;entryX=0.5;entryY=0;entryDx=0;entryDy=0;strokeColor=#000000;fontColor=#000000;" parent="GJmxOpB8FPE3G95XITca-1" source="3HNz-cHDdw3Unk86fgWz-2" target="5wianiTRNyT7YEeXoo-0-28" edge="1">
                    <mxGeometry relative="1" as="geometry"/>
                </mxCell>
                <mxCell id="3HNz-cHDdw3Unk86fgWz-2" value="Report mission cancellation and reason to user" style="shape=parallelogram;perimeter=parallelogramPerimeter;whiteSpace=wrap;html=1;fixedSize=1;spacing=20;" parent="GJmxOpB8FPE3G95XITca-1" vertex="1">
                    <mxGeometry x="308" y="815" width="152.5" height="50" as="geometry"/>
                </mxCell>
                <mxCell id="5wianiTRNyT7YEeXoo-0-21" style="edgeStyle=orthogonalEdgeStyle;rounded=0;orthogonalLoop=1;jettySize=auto;html=1;exitX=0;exitY=0.5;exitDx=0;exitDy=0;entryX=0.5;entryY=0;entryDx=0;entryDy=0;strokeColor=#000000;fontColor=#000000;" parent="GJmxOpB8FPE3G95XITca-1" source="5wianiTRNyT7YEeXoo-0-10" target="3HNz-cHDdw3Unk86fgWz-2" edge="1">
                    <mxGeometry relative="1" as="geometry"/>
                </mxCell>
                <mxCell id="5wianiTRNyT7YEeXoo-0-22" value="Unsuccessful" style="edgeLabel;html=1;align=center;verticalAlign=middle;resizable=0;points=[];fontColor=#000000;" parent="5wianiTRNyT7YEeXoo-0-21" vertex="1" connectable="0">
                    <mxGeometry x="-0.7223" y="3" relative="1" as="geometry">
                        <mxPoint x="-11.25" y="-3" as="offset"/>
                    </mxGeometry>
                </mxCell>
                <mxCell id="KBPEhBMC_uTKF8ICSlMO-0" value="Success" style="edgeStyle=orthogonalEdgeStyle;rounded=0;orthogonalLoop=1;jettySize=auto;html=1;exitX=0.5;exitY=1;exitDx=0;exitDy=0;entryX=0.5;entryY=0;entryDx=0;entryDy=0;" parent="GJmxOpB8FPE3G95XITca-1" source="5wianiTRNyT7YEeXoo-0-10" target="3HNz-cHDdw3Unk86fgWz-1" edge="1">
                    <mxGeometry relative="1" as="geometry"/>
                </mxCell>
                <mxCell id="5wianiTRNyT7YEeXoo-0-10" value="&lt;a href=&quot;data:page/id,kU6hZiUkJ_K9et9jPz5P&quot;&gt;Run Drone Retrieval&lt;/a&gt;" style="shape=process;whiteSpace=wrap;html=1;backgroundOutline=1;fillColor=#dae8fc;strokeColor=#6c8ebf;" parent="GJmxOpB8FPE3G95XITca-1" vertex="1">
                    <mxGeometry x="510" y="695" width="120" height="40" as="geometry"/>
                </mxCell>
                <mxCell id="5wianiTRNyT7YEeXoo-0-28" value="Completed Unsuccessfully" style="rounded=1;whiteSpace=wrap;html=1;arcSize=50;fillColor=#f8cecc;strokeColor=#b85450;" parent="GJmxOpB8FPE3G95XITca-1" vertex="1">
                    <mxGeometry x="338.75" y="885" width="90" height="40" as="geometry"/>
                </mxCell>
                <mxCell id="WM_Ayn4hG5Dd2GYoDGEZ-0" value="Completed Successfully" style="rounded=1;whiteSpace=wrap;html=1;arcSize=50;fillColor=#d5e8d4;strokeColor=#82b366;" parent="GJmxOpB8FPE3G95XITca-1" vertex="1">
                    <mxGeometry x="341.75" y="945" width="90" height="40" as="geometry"/>
                </mxCell>
                <mxCell id="jsLaCl5lP8pqXFVeOQ6o-2" style="edgeStyle=orthogonalEdgeStyle;rounded=0;orthogonalLoop=1;jettySize=auto;html=1;exitX=0.5;exitY=1;exitDx=0;exitDy=0;entryX=0;entryY=0.5;entryDx=0;entryDy=0;strokeColor=#000000;fontColor=#000000;" parent="GJmxOpB8FPE3G95XITca-1" source="jsLaCl5lP8pqXFVeOQ6o-0" target="WM_Ayn4hG5Dd2GYoDGEZ-0" edge="1">
                    <mxGeometry relative="1" as="geometry"/>
                </mxCell>
                <mxCell id="jXzwEAhq94a4B149d2Up-0" value="Successful" style="edgeLabel;html=1;align=center;verticalAlign=middle;resizable=0;points=[];" parent="jsLaCl5lP8pqXFVeOQ6o-2" vertex="1" connectable="0">
                    <mxGeometry x="-0.9376" relative="1" as="geometry">
                        <mxPoint as="offset"/>
                    </mxGeometry>
                </mxCell>
                <mxCell id="_tsWRsgGaYV0no-SUvXH-2" value="Unsuccessful" style="edgeStyle=orthogonalEdgeStyle;rounded=0;orthogonalLoop=1;jettySize=auto;html=1;exitX=0;exitY=0.5;exitDx=0;exitDy=0;entryX=0.5;entryY=0;entryDx=0;entryDy=0;" parent="GJmxOpB8FPE3G95XITca-1" source="jsLaCl5lP8pqXFVeOQ6o-0" target="emjh2jHRRE-CWuQxdgp9-0" edge="1">
                    <mxGeometry x="-0.2381" relative="1" as="geometry">
                        <mxPoint as="offset"/>
                    </mxGeometry>
                </mxCell>
                <mxCell id="jsLaCl5lP8pqXFVeOQ6o-0" value="&lt;a href=&quot;data:page/id,orloIAG8hlAXuOe0c8Ag&quot;&gt;Run Diagnostic Walkthrough&lt;/a&gt;" style="shape=process;whiteSpace=wrap;html=1;backgroundOutline=1;fillColor=#dae8fc;strokeColor=#6c8ebf;" parent="GJmxOpB8FPE3G95XITca-1" vertex="1">
                    <mxGeometry x="150" y="420" width="120" height="40" as="geometry"/>
                </mxCell>
                <mxCell id="fa7SrieXzXmUxG6kHqEM-0" value="All procedure calls are blocking.&lt;br&gt;&lt;br&gt;Any user may call for System Halt.&lt;br&gt;&lt;br&gt;Users may terminate a currently running Diagnostic to begin a new diagnostic session." style="text;strokeColor=none;fillColor=none;align=center;verticalAlign=middle;whiteSpace=wrap;rounded=0;fontColor=#000000;labelBorderColor=#000000;labelBackgroundColor=#FFF2CC;spacing=0;html=1;" parent="GJmxOpB8FPE3G95XITca-1" vertex="1">
                    <mxGeometry x="60" y="70" width="210" height="90" as="geometry"/>
                </mxCell>
                <mxCell id="CxUVJ3TezxPV1oT7409G-0" value="&lt;h1&gt;Procedure Calls&lt;/h1&gt;" style="text;html=1;strokeColor=none;fillColor=none;spacing=5;spacingTop=-20;whiteSpace=wrap;overflow=hidden;rounded=0;align=right;" parent="GJmxOpB8FPE3G95XITca-1" vertex="1">
                    <mxGeometry x="600" y="40" width="200" height="80" as="geometry"/>
                </mxCell>
                <mxCell id="cN4fscKyVLEvIAuWlpLt-3" style="edgeStyle=orthogonalEdgeStyle;rounded=0;orthogonalLoop=1;jettySize=auto;html=1;exitX=0.5;exitY=1;exitDx=0;exitDy=0;entryX=0.5;entryY=0;entryDx=0;entryDy=0;" parent="GJmxOpB8FPE3G95XITca-1" source="7SvlUcawCfz9gkhUnccX-0" target="cN4fscKyVLEvIAuWlpLt-0" edge="1">
                    <mxGeometry relative="1" as="geometry"/>
                </mxCell>
                <mxCell id="7SvlUcawCfz9gkhUnccX-0" value="Report mission cancellation to user" style="shape=parallelogram;perimeter=parallelogramPerimeter;whiteSpace=wrap;html=1;fixedSize=1;spacing=20;" parent="GJmxOpB8FPE3G95XITca-1" vertex="1">
                    <mxGeometry x="645" y="560" width="152.5" height="40" as="geometry"/>
                </mxCell>
                <mxCell id="cN4fscKyVLEvIAuWlpLt-0" value="Terminated Early" style="rounded=1;whiteSpace=wrap;html=1;arcSize=50;fillColor=#ffe6cc;strokeColor=#d79b00;" parent="GJmxOpB8FPE3G95XITca-1" vertex="1">
                    <mxGeometry x="676.25" y="625" width="90" height="40" as="geometry"/>
                </mxCell>
                <mxCell id="_tsWRsgGaYV0no-SUvXH-3" style="edgeStyle=orthogonalEdgeStyle;rounded=0;orthogonalLoop=1;jettySize=auto;html=1;exitX=0.5;exitY=1;exitDx=0;exitDy=0;entryX=0.5;entryY=0;entryDx=0;entryDy=0;" parent="GJmxOpB8FPE3G95XITca-1" source="emjh2jHRRE-CWuQxdgp9-0" target="zXo0T1vjVsjhhMwTurZ1-1" edge="1">
                    <mxGeometry relative="1" as="geometry"/>
                </mxCell>
                <mxCell id="emjh2jHRRE-CWuQxdgp9-0" value="Continue blocking" style="rounded=0;whiteSpace=wrap;html=1;" parent="GJmxOpB8FPE3G95XITca-1" vertex="1">
                    <mxGeometry x="40" y="490" width="110" height="40" as="geometry"/>
                </mxCell>
                <mxCell id="_tsWRsgGaYV0no-SUvXH-5" style="edgeStyle=orthogonalEdgeStyle;rounded=0;orthogonalLoop=1;jettySize=auto;html=1;exitX=0.5;exitY=1;exitDx=0;exitDy=0;entryX=0.5;entryY=0;entryDx=0;entryDy=0;" parent="GJmxOpB8FPE3G95XITca-1" source="zXo0T1vjVsjhhMwTurZ1-0" target="_tsWRsgGaYV0no-SUvXH-0" edge="1">
                    <mxGeometry relative="1" as="geometry"/>
                </mxCell>
                <mxCell id="zXo0T1vjVsjhhMwTurZ1-0" value="command = system halt" style="rounded=0;whiteSpace=wrap;html=1;" parent="GJmxOpB8FPE3G95XITca-1" vertex="1">
                    <mxGeometry x="25" y="630" width="140" height="40" as="geometry"/>
                </mxCell>
                <mxCell id="_tsWRsgGaYV0no-SUvXH-4" style="edgeStyle=orthogonalEdgeStyle;rounded=0;orthogonalLoop=1;jettySize=auto;html=1;exitX=0.5;exitY=1;exitDx=0;exitDy=0;entryX=0.5;entryY=0;entryDx=0;entryDy=0;" parent="GJmxOpB8FPE3G95XITca-1" source="zXo0T1vjVsjhhMwTurZ1-1" target="zXo0T1vjVsjhhMwTurZ1-0" edge="1">
                    <mxGeometry relative="1" as="geometry"/>
                </mxCell>
                <mxCell id="zXo0T1vjVsjhhMwTurZ1-1" value="Report diagnostic failure to user" style="shape=parallelogram;perimeter=parallelogramPerimeter;whiteSpace=wrap;html=1;fixedSize=1;spacing=20;" parent="GJmxOpB8FPE3G95XITca-1" vertex="1">
                    <mxGeometry x="18.75" y="560" width="152.5" height="40" as="geometry"/>
                </mxCell>
                <mxCell id="_tsWRsgGaYV0no-SUvXH-6" style="edgeStyle=orthogonalEdgeStyle;rounded=0;orthogonalLoop=1;jettySize=auto;html=1;exitX=0.5;exitY=1;exitDx=0;exitDy=0;entryX=0.5;entryY=0;entryDx=0;entryDy=0;" parent="GJmxOpB8FPE3G95XITca-1" source="_tsWRsgGaYV0no-SUvXH-0" target="_tsWRsgGaYV0no-SUvXH-1" edge="1">
                    <mxGeometry relative="1" as="geometry"/>
                </mxCell>
                <mxCell id="_tsWRsgGaYV0no-SUvXH-0" value="&lt;a href=&quot;null&quot;&gt;Run Hardware Power Command&lt;/a&gt;" style="shape=process;whiteSpace=wrap;html=1;backgroundOutline=1;fillColor=#dae8fc;strokeColor=#6c8ebf;" parent="GJmxOpB8FPE3G95XITca-1" vertex="1">
                    <mxGeometry x="30" y="700" width="130" height="40" as="geometry"/>
                </mxCell>
                <mxCell id="_tsWRsgGaYV0no-SUvXH-1" value="Completed Unsuccessfully" style="rounded=1;whiteSpace=wrap;html=1;arcSize=50;fillColor=#f8cecc;strokeColor=#b85450;" parent="GJmxOpB8FPE3G95XITca-1" vertex="1">
                    <mxGeometry x="50" y="770" width="90" height="40" as="geometry"/>
                </mxCell>
                <mxCell id="NFHCG4BtGcSYhilHYb7W-2" style="edgeStyle=orthogonalEdgeStyle;rounded=0;orthogonalLoop=1;jettySize=auto;html=1;exitX=0.5;exitY=1;exitDx=0;exitDy=0;entryX=0.5;entryY=0;entryDx=0;entryDy=0;" parent="GJmxOpB8FPE3G95XITca-1" source="sNQVrA7brI-a_P8DkKUO-0" target="SFeeQmNfMo5vog98wkyi-0" edge="1">
                    <mxGeometry relative="1" as="geometry"/>
                </mxCell>
                <mxCell id="sNQVrA7brI-a_P8DkKUO-0" value="Execute drone's flight" style="shape=process;whiteSpace=wrap;html=1;backgroundOutline=1;fillColor=#e1d5e7;strokeColor=#9673a6;" parent="GJmxOpB8FPE3G95XITca-1" vertex="1">
                    <mxGeometry x="510" y="560" width="120" height="40" as="geometry"/>
                </mxCell>
            </root>
        </mxGraphModel>
    </diagram>
    <diagram id="NW1ys60D_21QKCZti7Hj" name="Weather-Evaluation">
        &#xa;
        <mxGraphModel dx="1456" dy="1011" grid="1" gridSize="10" guides="1" tooltips="1" connect="1" arrows="1" fold="1" page="1" pageScale="1" pageWidth="850" pageHeight="1100" math="0" shadow="0">
            &#xa;
            <root>
                &#xa;
                <mxCell id="XJn4YvoHzEJBXQ4wsLiA-0"/>
                &#xa;
                <mxCell id="XJn4YvoHzEJBXQ4wsLiA-1" parent="XJn4YvoHzEJBXQ4wsLiA-0"/>
                &#xa;
                <mxCell id="XJn4YvoHzEJBXQ4wsLiA-2" value="&lt;h1&gt;Weather Evaluation&lt;/h1&gt;" style="text;html=1;strokeColor=none;fillColor=none;spacing=5;spacingTop=-20;whiteSpace=wrap;overflow=hidden;rounded=0;align=right;" parent="XJn4YvoHzEJBXQ4wsLiA-1" vertex="1">
                    &#xa;
                    <mxGeometry x="600" y="40" width="200" height="80" as="geometry"/>
                    &#xa;
                </mxCell>
                &#xa;
                <mxCell id="cONDm9ofkFo4yR8kVMMK-1" style="edgeStyle=orthogonalEdgeStyle;rounded=0;orthogonalLoop=1;jettySize=auto;html=1;exitX=0.5;exitY=1;exitDx=0;exitDy=0;entryX=0.5;entryY=0;entryDx=0;entryDy=0;" parent="XJn4YvoHzEJBXQ4wsLiA-1" source="mBWgfbriCN-K070fxyaU-0" target="4tG_6qYxE2mWBo7une03-0" edge="1">
                    &#xa;
                    <mxGeometry relative="1" as="geometry"/>
                    &#xa;
                </mxCell>
                &#xa;
                <mxCell id="mBWgfbriCN-K070fxyaU-0" value="Start" style="rounded=1;whiteSpace=wrap;html=1;arcSize=50;fillColor=#d5e8d4;strokeColor=#82b366;" parent="XJn4YvoHzEJBXQ4wsLiA-1" vertex="1">
                    &#xa;
                    <mxGeometry x="380" y="40" width="90" height="40" as="geometry"/>
                    &#xa;
                </mxCell>
                &#xa;
                <mxCell id="cONDm9ofkFo4yR8kVMMK-2" style="edgeStyle=orthogonalEdgeStyle;rounded=0;orthogonalLoop=1;jettySize=auto;html=1;exitX=0.5;exitY=1;exitDx=0;exitDy=0;entryX=0.5;entryY=0;entryDx=0;entryDy=0;" parent="XJn4YvoHzEJBXQ4wsLiA-1" source="4tG_6qYxE2mWBo7une03-0" target="4tG_6qYxE2mWBo7une03-1" edge="1">
                    &#xa;
                    <mxGeometry relative="1" as="geometry"/>
                    &#xa;
                </mxCell>
                &#xa;
                <mxCell id="4tG_6qYxE2mWBo7une03-0" value="Check wind speed" style="rounded=0;whiteSpace=wrap;html=1;" parent="XJn4YvoHzEJBXQ4wsLiA-1" vertex="1">
                    &#xa;
                    <mxGeometry x="370" y="110" width="110" height="40" as="geometry"/>
                    &#xa;
                </mxCell>
                &#xa;
                <mxCell id="cONDm9ofkFo4yR8kVMMK-3" style="edgeStyle=orthogonalEdgeStyle;rounded=0;orthogonalLoop=1;jettySize=auto;html=1;exitX=0.5;exitY=1;exitDx=0;exitDy=0;entryX=0.5;entryY=0;entryDx=0;entryDy=0;" parent="XJn4YvoHzEJBXQ4wsLiA-1" source="4tG_6qYxE2mWBo7une03-1" target="4tG_6qYxE2mWBo7une03-2" edge="1">
                    &#xa;
                    <mxGeometry relative="1" as="geometry"/>
                    &#xa;
                </mxCell>
                &#xa;
                <mxCell id="4tG_6qYxE2mWBo7une03-1" value="Check precipitation" style="rounded=0;whiteSpace=wrap;html=1;" parent="XJn4YvoHzEJBXQ4wsLiA-1" vertex="1">
                    &#xa;
                    <mxGeometry x="370" y="180" width="110" height="40" as="geometry"/>
                    &#xa;
                </mxCell>
                &#xa;
                <mxCell id="cONDm9ofkFo4yR8kVMMK-4" style="edgeStyle=orthogonalEdgeStyle;rounded=0;orthogonalLoop=1;jettySize=auto;html=1;exitX=0.5;exitY=1;exitDx=0;exitDy=0;entryX=0.5;entryY=0;entryDx=0;entryDy=0;" parent="XJn4YvoHzEJBXQ4wsLiA-1" source="4tG_6qYxE2mWBo7une03-2" target="CXXUq5DbUwg99c3qnva6-0" edge="1">
                    &#xa;
                    <mxGeometry relative="1" as="geometry"/>
                    &#xa;
                </mxCell>
                &#xa;
                <mxCell id="4tG_6qYxE2mWBo7une03-2" value="Check pressure" style="rounded=0;whiteSpace=wrap;html=1;" parent="XJn4YvoHzEJBXQ4wsLiA-1" vertex="1">
                    &#xa;
                    <mxGeometry x="370" y="250" width="110" height="40" as="geometry"/>
                    &#xa;
                </mxCell>
                &#xa;
                <mxCell id="cONDm9ofkFo4yR8kVMMK-6" value="False" style="edgeStyle=orthogonalEdgeStyle;rounded=0;orthogonalLoop=1;jettySize=auto;html=1;exitX=0.5;exitY=1;exitDx=0;exitDy=0;entryX=0.5;entryY=0;entryDx=0;entryDy=0;" parent="XJn4YvoHzEJBXQ4wsLiA-1" source="CXXUq5DbUwg99c3qnva6-0" target="cONDm9ofkFo4yR8kVMMK-0" edge="1">
                    &#xa;
                    <mxGeometry relative="1" as="geometry"/>
                    &#xa;
                </mxCell>
                &#xa;
                <mxCell id="cONDm9ofkFo4yR8kVMMK-7" value="True" style="edgeStyle=orthogonalEdgeStyle;rounded=0;orthogonalLoop=1;jettySize=auto;html=1;exitX=1;exitY=0.5;exitDx=0;exitDy=0;entryX=0;entryY=0.5;entryDx=0;entryDy=0;" parent="XJn4YvoHzEJBXQ4wsLiA-1" source="CXXUq5DbUwg99c3qnva6-0" target="RECYTnpQr0I7NuOTbno_-0" edge="1">
                    &#xa;
                    <mxGeometry relative="1" as="geometry"/>
                    &#xa;
                </mxCell>
                &#xa;
                <mxCell id="CXXUq5DbUwg99c3qnva6-0" value="One or more conditions are unacceptable" style="rhombus;whiteSpace=wrap;spacing=20;spacingLeft=0;fillColor=#fff2cc;strokeColor=#d6b656;" parent="XJn4YvoHzEJBXQ4wsLiA-1" vertex="1">
                    &#xa;
                    <mxGeometry x="340" y="320" width="170" height="80" as="geometry"/>
                    &#xa;
                </mxCell>
                &#xa;
                <mxCell id="RECYTnpQr0I7NuOTbno_-0" value="Weather Warning" style="rounded=1;whiteSpace=wrap;html=1;arcSize=50;fillColor=#f8cecc;strokeColor=#b85450;" parent="XJn4YvoHzEJBXQ4wsLiA-1" vertex="1">
                    &#xa;
                    <mxGeometry x="580" y="340" width="90" height="40" as="geometry"/>
                    &#xa;
                </mxCell>
                &#xa;
                <mxCell id="cONDm9ofkFo4yR8kVMMK-0" value="Safe" style="rounded=1;whiteSpace=wrap;html=1;arcSize=50;fillColor=#d5e8d4;strokeColor=#82b366;" parent="XJn4YvoHzEJBXQ4wsLiA-1" vertex="1">
                    &#xa;
                    <mxGeometry x="380" y="440" width="90" height="40" as="geometry"/>
                    &#xa;
                </mxCell>
                &#xa;
            </root>
            &#xa;
        </mxGraphModel>
        &#xa;
    </diagram>
    <diagram id="3RYjdV1VzT-5Tz3Iotj4" name="Take-Off-Preparation">
        <mxGraphModel dx="1106" dy="753" grid="1" gridSize="10" guides="1" tooltips="1" connect="1" arrows="1" fold="1" page="1" pageScale="1" pageWidth="850" pageHeight="1100" math="0" shadow="0">
            <root>
                <mxCell id="1_Knp2v9eZZ3ae-0EnxG-0"/>
                <mxCell id="1_Knp2v9eZZ3ae-0EnxG-1" parent="1_Knp2v9eZZ3ae-0EnxG-0"/>
                <mxCell id="EWA_HVizq1BEleqAU39w-0" value="&lt;h1&gt;Take-Off Preparation&lt;/h1&gt;" style="text;html=1;strokeColor=none;fillColor=none;spacing=5;spacingTop=-20;whiteSpace=wrap;overflow=hidden;rounded=0;align=right;" parent="1_Knp2v9eZZ3ae-0EnxG-1" vertex="1">
                    <mxGeometry x="600" y="40" width="200" height="80" as="geometry"/>
                </mxCell>
                <mxCell id="ZonRWtdPPyOgxgV_Lb0a-1" style="edgeStyle=orthogonalEdgeStyle;rounded=0;orthogonalLoop=1;jettySize=auto;html=1;exitX=0.5;exitY=1;exitDx=0;exitDy=0;entryX=0.5;entryY=0;entryDx=0;entryDy=0;" parent="1_Knp2v9eZZ3ae-0EnxG-1" source="2QeXIDfq-q9ygshpq-OS-0" target="1tSwdX8bCIXGQWcEI35O-0" edge="1">
                    <mxGeometry relative="1" as="geometry"/>
                </mxCell>
                <mxCell id="2QeXIDfq-q9ygshpq-OS-0" value="Start" style="rounded=1;whiteSpace=wrap;html=1;arcSize=50;fillColor=#d5e8d4;strokeColor=#82b366;" parent="1_Knp2v9eZZ3ae-0EnxG-1" vertex="1">
                    <mxGeometry x="430" y="40" width="90" height="40" as="geometry"/>
                </mxCell>
                <mxCell id="ZonRWtdPPyOgxgV_Lb0a-2" value="True" style="edgeStyle=orthogonalEdgeStyle;rounded=0;orthogonalLoop=1;jettySize=auto;html=1;exitX=0;exitY=0.5;exitDx=0;exitDy=0;entryX=1;entryY=0.5;entryDx=0;entryDy=0;" parent="1_Knp2v9eZZ3ae-0EnxG-1" source="1tSwdX8bCIXGQWcEI35O-0" target="sIojV_cbJ6kOAcjihv70-0" edge="1">
                    <mxGeometry relative="1" as="geometry"/>
                </mxCell>
                <mxCell id="6EZjee5dwzZigjmgXIyb-2" value="False" style="edgeStyle=orthogonalEdgeStyle;rounded=0;orthogonalLoop=1;jettySize=auto;html=1;exitX=0.5;exitY=1;exitDx=0;exitDy=0;" parent="1_Knp2v9eZZ3ae-0EnxG-1" source="1tSwdX8bCIXGQWcEI35O-0" target="1tSwdX8bCIXGQWcEI35O-1" edge="1">
                    <mxGeometry relative="1" as="geometry"/>
                </mxCell>
                <mxCell id="1tSwdX8bCIXGQWcEI35O-0" value="Is associated &#10;door/roof closed" style="rhombus;whiteSpace=wrap;spacing=20;spacingLeft=0;fillColor=#fff2cc;strokeColor=#d6b656;" parent="1_Knp2v9eZZ3ae-0EnxG-1" vertex="1">
                    <mxGeometry x="390" y="110" width="170" height="80" as="geometry"/>
                </mxCell>
                <mxCell id="ZonRWtdPPyOgxgV_Lb0a-4" value="True" style="edgeStyle=orthogonalEdgeStyle;rounded=0;orthogonalLoop=1;jettySize=auto;html=1;exitX=0;exitY=0.5;exitDx=0;exitDy=0;entryX=1;entryY=0.5;entryDx=0;entryDy=0;" parent="1_Knp2v9eZZ3ae-0EnxG-1" source="1tSwdX8bCIXGQWcEI35O-1" target="sIojV_cbJ6kOAcjihv70-1" edge="1">
                    <mxGeometry relative="1" as="geometry"/>
                </mxCell>
                <mxCell id="6EZjee5dwzZigjmgXIyb-3" value="False" style="edgeStyle=orthogonalEdgeStyle;rounded=0;orthogonalLoop=1;jettySize=auto;html=1;exitX=0.5;exitY=1;exitDx=0;exitDy=0;entryX=0.5;entryY=0;entryDx=0;entryDy=0;" parent="1_Knp2v9eZZ3ae-0EnxG-1" source="1tSwdX8bCIXGQWcEI35O-1" target="x88DXIPf8vajwcmGjk3s-1" edge="1">
                    <mxGeometry relative="1" as="geometry"/>
                </mxCell>
                <mxCell id="1tSwdX8bCIXGQWcEI35O-1" value="Is associated pad retracted/lowered" style="rhombus;whiteSpace=wrap;spacing=20;spacingLeft=0;fillColor=#fff2cc;strokeColor=#d6b656;" parent="1_Knp2v9eZZ3ae-0EnxG-1" vertex="1">
                    <mxGeometry x="390" y="360" width="170" height="80" as="geometry"/>
                </mxCell>
                <mxCell id="ZonRWtdPPyOgxgV_Lb0a-12" style="edgeStyle=orthogonalEdgeStyle;rounded=0;orthogonalLoop=1;jettySize=auto;html=1;exitX=0.5;exitY=1;exitDx=0;exitDy=0;entryX=0.5;entryY=0;entryDx=0;entryDy=0;" parent="1_Knp2v9eZZ3ae-0EnxG-1" source="sIojV_cbJ6kOAcjihv70-0" target="NqhsKPxBq-r5RFx7v7wY-0" edge="1">
                    <mxGeometry relative="1" as="geometry"/>
                </mxCell>
                <mxCell id="sIojV_cbJ6kOAcjihv70-0" value="command = open associated door/roof" style="rounded=0;whiteSpace=wrap;html=1;" parent="1_Knp2v9eZZ3ae-0EnxG-1" vertex="1">
                    <mxGeometry x="200" y="130" width="140" height="40" as="geometry"/>
                </mxCell>
                <mxCell id="ZonRWtdPPyOgxgV_Lb0a-13" style="edgeStyle=orthogonalEdgeStyle;rounded=0;orthogonalLoop=1;jettySize=auto;html=1;exitX=0.5;exitY=1;exitDx=0;exitDy=0;entryX=0.5;entryY=0;entryDx=0;entryDy=0;" parent="1_Knp2v9eZZ3ae-0EnxG-1" source="sIojV_cbJ6kOAcjihv70-1" target="NqhsKPxBq-r5RFx7v7wY-1" edge="1">
                    <mxGeometry relative="1" as="geometry"/>
                </mxCell>
                <mxCell id="sIojV_cbJ6kOAcjihv70-1" value="command = extend/raise associated pad" style="rounded=0;whiteSpace=wrap;html=1;" parent="1_Knp2v9eZZ3ae-0EnxG-1" vertex="1">
                    <mxGeometry x="200" y="380" width="140" height="40" as="geometry"/>
                </mxCell>
                <mxCell id="6EZjee5dwzZigjmgXIyb-0" value="Success" style="edgeStyle=orthogonalEdgeStyle;rounded=0;orthogonalLoop=1;jettySize=auto;html=1;exitX=0.5;exitY=1;exitDx=0;exitDy=0;entryX=0.5;entryY=0;entryDx=0;entryDy=0;" parent="1_Knp2v9eZZ3ae-0EnxG-1" source="NqhsKPxBq-r5RFx7v7wY-0" target="x88DXIPf8vajwcmGjk3s-12" edge="1">
                    <mxGeometry relative="1" as="geometry"/>
                </mxCell>
                <mxCell id="6EZjee5dwzZigjmgXIyb-6" value="Unsuccessful" style="edgeStyle=orthogonalEdgeStyle;rounded=0;orthogonalLoop=1;jettySize=auto;html=1;exitX=0;exitY=0.5;exitDx=0;exitDy=0;entryX=0.5;entryY=0;entryDx=0;entryDy=0;" parent="1_Knp2v9eZZ3ae-0EnxG-1" source="NqhsKPxBq-r5RFx7v7wY-0" target="Rv3tmRkz_yEn5Al9KTvJ-0" edge="1">
                    <mxGeometry x="-0.7309" relative="1" as="geometry">
                        <mxPoint as="offset"/>
                    </mxGeometry>
                </mxCell>
                <mxCell id="NqhsKPxBq-r5RFx7v7wY-0" value="&lt;a href=&quot;data:page/id,rtuHvfN65sJRfW5IH7EF&quot;&gt;Run Motor System Command&lt;/a&gt;" style="shape=process;whiteSpace=wrap;html=1;backgroundOutline=1;fillColor=#dae8fc;strokeColor=#6c8ebf;" parent="1_Knp2v9eZZ3ae-0EnxG-1" vertex="1">
                    <mxGeometry x="205" y="200" width="130" height="40" as="geometry"/>
                </mxCell>
                <mxCell id="6EZjee5dwzZigjmgXIyb-1" value="Success" style="edgeStyle=orthogonalEdgeStyle;rounded=0;orthogonalLoop=1;jettySize=auto;html=1;exitX=0.5;exitY=1;exitDx=0;exitDy=0;entryX=0.5;entryY=0;entryDx=0;entryDy=0;" parent="1_Knp2v9eZZ3ae-0EnxG-1" source="NqhsKPxBq-r5RFx7v7wY-1" target="x88DXIPf8vajwcmGjk3s-13" edge="1">
                    <mxGeometry relative="1" as="geometry"/>
                </mxCell>
                <mxCell id="6EZjee5dwzZigjmgXIyb-7" value="Unsuccessful" style="edgeStyle=orthogonalEdgeStyle;rounded=0;orthogonalLoop=1;jettySize=auto;html=1;exitX=0;exitY=0.5;exitDx=0;exitDy=0;entryX=0.5;entryY=0;entryDx=0;entryDy=0;" parent="1_Knp2v9eZZ3ae-0EnxG-1" source="NqhsKPxBq-r5RFx7v7wY-1" target="Rv3tmRkz_yEn5Al9KTvJ-0" edge="1">
                    <mxGeometry x="-0.3069" relative="1" as="geometry">
                        <mxPoint x="130" y="510" as="targetPoint"/>
                        <mxPoint as="offset"/>
                    </mxGeometry>
                </mxCell>
                <mxCell id="NqhsKPxBq-r5RFx7v7wY-1" value="&lt;a href=&quot;data:page/id,rtuHvfN65sJRfW5IH7EF&quot;&gt;Run Motor System Command&lt;/a&gt;" style="shape=process;whiteSpace=wrap;html=1;backgroundOutline=1;fillColor=#dae8fc;strokeColor=#6c8ebf;" parent="1_Knp2v9eZZ3ae-0EnxG-1" vertex="1">
                    <mxGeometry x="205" y="450" width="130" height="40" as="geometry"/>
                </mxCell>
                <mxCell id="TmGq65nlJtN2hHQTS94d-0" style="edgeStyle=orthogonalEdgeStyle;rounded=0;orthogonalLoop=1;jettySize=auto;html=1;exitX=0.5;exitY=1;exitDx=0;exitDy=0;entryX=0.5;entryY=0;entryDx=0;entryDy=0;" parent="1_Knp2v9eZZ3ae-0EnxG-1" source="Rv3tmRkz_yEn5Al9KTvJ-0" target="Rv3tmRkz_yEn5Al9KTvJ-1" edge="1">
                    <mxGeometry relative="1" as="geometry"/>
                </mxCell>
                <mxCell id="Rv3tmRkz_yEn5Al9KTvJ-0" value="Report cause of failure" style="shape=parallelogram;perimeter=parallelogramPerimeter;whiteSpace=wrap;html=1;fixedSize=1;spacing=20;" parent="1_Knp2v9eZZ3ae-0EnxG-1" vertex="1">
                    <mxGeometry x="30" y="530" width="152.5" height="40" as="geometry"/>
                </mxCell>
                <mxCell id="Rv3tmRkz_yEn5Al9KTvJ-1" value="Completed Unsuccessfully" style="rounded=1;whiteSpace=wrap;html=1;arcSize=50;fillColor=#f8cecc;strokeColor=#b85450;" parent="1_Knp2v9eZZ3ae-0EnxG-1" vertex="1">
                    <mxGeometry x="61.25" y="600" width="90" height="40" as="geometry"/>
                </mxCell>
                <mxCell id="x88DXIPf8vajwcmGjk3s-0" style="edgeStyle=orthogonalEdgeStyle;rounded=0;orthogonalLoop=1;jettySize=auto;html=1;exitX=0.5;exitY=1;exitDx=0;exitDy=0;entryX=0.5;entryY=0;entryDx=0;entryDy=0;" parent="1_Knp2v9eZZ3ae-0EnxG-1" source="x88DXIPf8vajwcmGjk3s-1" target="x88DXIPf8vajwcmGjk3s-3" edge="1">
                    <mxGeometry relative="1" as="geometry"/>
                </mxCell>
                <mxCell id="x88DXIPf8vajwcmGjk3s-1" value="Report ready to fly status to user" style="shape=parallelogram;perimeter=parallelogramPerimeter;whiteSpace=wrap;html=1;fixedSize=1;spacing=20;" parent="1_Knp2v9eZZ3ae-0EnxG-1" vertex="1">
                    <mxGeometry x="398.75" y="610" width="152.5" height="40" as="geometry"/>
                </mxCell>
                <mxCell id="x88DXIPf8vajwcmGjk3s-2" style="edgeStyle=orthogonalEdgeStyle;rounded=0;orthogonalLoop=1;jettySize=auto;html=1;exitX=0.5;exitY=1;exitDx=0;exitDy=0;entryX=0.5;entryY=0;entryDx=0;entryDy=0;" parent="1_Knp2v9eZZ3ae-0EnxG-1" source="x88DXIPf8vajwcmGjk3s-3" target="x88DXIPf8vajwcmGjk3s-6" edge="1">
                    <mxGeometry relative="1" as="geometry"/>
                </mxCell>
                <mxCell id="x88DXIPf8vajwcmGjk3s-3" value="Request ready to fly confirmation" style="shape=parallelogram;perimeter=parallelogramPerimeter;whiteSpace=wrap;html=1;fixedSize=1;spacing=20;" parent="1_Knp2v9eZZ3ae-0EnxG-1" vertex="1">
                    <mxGeometry x="398.75" y="680" width="152.5" height="40" as="geometry"/>
                </mxCell>
                <mxCell id="x88DXIPf8vajwcmGjk3s-4" value="True" style="edgeStyle=orthogonalEdgeStyle;rounded=0;orthogonalLoop=1;jettySize=auto;html=1;exitX=0;exitY=0.5;exitDx=0;exitDy=0;entryX=1;entryY=0.5;entryDx=0;entryDy=0;" parent="1_Knp2v9eZZ3ae-0EnxG-1" source="x88DXIPf8vajwcmGjk3s-6" target="x88DXIPf8vajwcmGjk3s-8" edge="1">
                    <mxGeometry relative="1" as="geometry"/>
                </mxCell>
                <mxCell id="x88DXIPf8vajwcmGjk3s-5" value="False" style="edgeStyle=orthogonalEdgeStyle;rounded=0;orthogonalLoop=1;jettySize=auto;html=1;exitX=0.5;exitY=1;exitDx=0;exitDy=0;entryX=0.5;entryY=0;entryDx=0;entryDy=0;" parent="1_Knp2v9eZZ3ae-0EnxG-1" source="x88DXIPf8vajwcmGjk3s-6" edge="1">
                    <mxGeometry relative="1" as="geometry">
                        <mxPoint x="475" y="870" as="targetPoint"/>
                    </mxGeometry>
                </mxCell>
                <mxCell id="x88DXIPf8vajwcmGjk3s-6" value="User cancels mission" style="rhombus;whiteSpace=wrap;spacing=20;spacingLeft=0;fillColor=#fff2cc;strokeColor=#d6b656;" parent="1_Knp2v9eZZ3ae-0EnxG-1" vertex="1">
                    <mxGeometry x="390" y="750" width="170" height="80" as="geometry"/>
                </mxCell>
                <mxCell id="3VZ1YdHKQyJ-r32X_itX-1" style="edgeStyle=orthogonalEdgeStyle;rounded=0;orthogonalLoop=1;jettySize=auto;html=1;exitX=0.5;exitY=1;exitDx=0;exitDy=0;entryX=0.5;entryY=0;entryDx=0;entryDy=0;" parent="1_Knp2v9eZZ3ae-0EnxG-1" source="x88DXIPf8vajwcmGjk3s-8" target="3VZ1YdHKQyJ-r32X_itX-0" edge="1">
                    <mxGeometry relative="1" as="geometry"/>
                </mxCell>
                <mxCell id="x88DXIPf8vajwcmGjk3s-8" value="Report mission cancellation" style="shape=parallelogram;perimeter=parallelogramPerimeter;whiteSpace=wrap;html=1;fixedSize=1;spacing=20;" parent="1_Knp2v9eZZ3ae-0EnxG-1" vertex="1">
                    <mxGeometry x="193.5" y="770" width="152.5" height="40" as="geometry"/>
                </mxCell>
                <mxCell id="x88DXIPf8vajwcmGjk3s-11" value="Completed Successfully" style="rounded=1;whiteSpace=wrap;html=1;arcSize=50;fillColor=#d5e8d4;strokeColor=#82b366;" parent="1_Knp2v9eZZ3ae-0EnxG-1" vertex="1">
                    <mxGeometry x="430" y="870" width="90" height="40" as="geometry"/>
                </mxCell>
                <mxCell id="6EZjee5dwzZigjmgXIyb-5" style="edgeStyle=orthogonalEdgeStyle;rounded=0;orthogonalLoop=1;jettySize=auto;html=1;exitX=0.5;exitY=1;exitDx=0;exitDy=0;entryX=0.5;entryY=0;entryDx=0;entryDy=0;" parent="1_Knp2v9eZZ3ae-0EnxG-1" source="x88DXIPf8vajwcmGjk3s-12" target="1tSwdX8bCIXGQWcEI35O-1" edge="1">
                    <mxGeometry relative="1" as="geometry">
                        <Array as="points">
                            <mxPoint x="270" y="340"/>
                            <mxPoint x="475" y="340"/>
                        </Array>
                    </mxGeometry>
                </mxCell>
                <mxCell id="x88DXIPf8vajwcmGjk3s-12" value="Wait for motor system command to complete" style="rounded=0;whiteSpace=wrap;html=1;" parent="1_Knp2v9eZZ3ae-0EnxG-1" vertex="1">
                    <mxGeometry x="200" y="280" width="140" height="40" as="geometry"/>
                </mxCell>
                <mxCell id="6EZjee5dwzZigjmgXIyb-4" style="edgeStyle=orthogonalEdgeStyle;rounded=0;orthogonalLoop=1;jettySize=auto;html=1;exitX=0.5;exitY=1;exitDx=0;exitDy=0;entryX=0.5;entryY=0;entryDx=0;entryDy=0;" parent="1_Knp2v9eZZ3ae-0EnxG-1" source="x88DXIPf8vajwcmGjk3s-13" target="x88DXIPf8vajwcmGjk3s-1" edge="1">
                    <mxGeometry relative="1" as="geometry">
                        <Array as="points">
                            <mxPoint x="270" y="590"/>
                            <mxPoint x="475" y="590"/>
                        </Array>
                    </mxGeometry>
                </mxCell>
                <mxCell id="x88DXIPf8vajwcmGjk3s-13" value="Wait for motor system command to complete" style="rounded=0;whiteSpace=wrap;html=1;" parent="1_Knp2v9eZZ3ae-0EnxG-1" vertex="1">
                    <mxGeometry x="200" y="530" width="140" height="40" as="geometry"/>
                </mxCell>
                <mxCell id="3VZ1YdHKQyJ-r32X_itX-0" value="Terminated Early" style="rounded=1;whiteSpace=wrap;html=1;arcSize=50;fillColor=#ffe6cc;strokeColor=#d79b00;" parent="1_Knp2v9eZZ3ae-0EnxG-1" vertex="1">
                    <mxGeometry x="224.75" y="840" width="90" height="40" as="geometry"/>
                </mxCell>
            </root>
        </mxGraphModel>
    </diagram>
    <diagram id="kU6hZiUkJ_K9et9jPz5P" name="Drone-Retrieval">
        <mxGraphModel dx="1106" dy="753" grid="1" gridSize="10" guides="1" tooltips="1" connect="1" arrows="1" fold="1" page="1" pageScale="1" pageWidth="850" pageHeight="1100" math="0" shadow="0">
            <root>
                <mxCell id="BmgKbO8g2pXzUuBbyKO1-0"/>
                <mxCell id="BmgKbO8g2pXzUuBbyKO1-1" parent="BmgKbO8g2pXzUuBbyKO1-0"/>
                <mxCell id="BmgKbO8g2pXzUuBbyKO1-2" value="&lt;h1&gt;Drone Retrieval&lt;/h1&gt;" style="text;html=1;strokeColor=none;fillColor=none;spacing=5;spacingTop=-20;whiteSpace=wrap;overflow=hidden;rounded=0;align=right;" parent="BmgKbO8g2pXzUuBbyKO1-1" vertex="1">
                    <mxGeometry x="600" y="40" width="200" height="80" as="geometry"/>
                </mxCell>
                <mxCell id="ezdFIuFt6yYD-eqGVIw8-0" style="edgeStyle=orthogonalEdgeStyle;rounded=0;orthogonalLoop=1;jettySize=auto;html=1;exitX=0.5;exitY=1;exitDx=0;exitDy=0;entryX=0.5;entryY=0;entryDx=0;entryDy=0;" parent="BmgKbO8g2pXzUuBbyKO1-1" source="ezdFIuFt6yYD-eqGVIw8-1" target="ezdFIuFt6yYD-eqGVIw8-3" edge="1">
                    <mxGeometry relative="1" as="geometry"/>
                </mxCell>
                <mxCell id="ezdFIuFt6yYD-eqGVIw8-1" value="Recieve drone landing request" style="rounded=1;whiteSpace=wrap;html=1;arcSize=50;fillColor=#d5e8d4;strokeColor=#82b366;" parent="BmgKbO8g2pXzUuBbyKO1-1" vertex="1">
                    <mxGeometry x="430" y="40" width="90" height="40" as="geometry"/>
                </mxCell>
                <mxCell id="ezdFIuFt6yYD-eqGVIw8-2" value="False" style="edgeStyle=orthogonalEdgeStyle;rounded=0;orthogonalLoop=1;jettySize=auto;html=1;exitX=0.5;exitY=1;exitDx=0;exitDy=0;entryX=0.5;entryY=0;entryDx=0;entryDy=0;" parent="BmgKbO8g2pXzUuBbyKO1-1" source="ezdFIuFt6yYD-eqGVIw8-3" target="ezdFIuFt6yYD-eqGVIw8-4" edge="1">
                    <mxGeometry x="-0.3333" relative="1" as="geometry">
                        <mxPoint as="offset"/>
                    </mxGeometry>
                </mxCell>
                <mxCell id="m2w_BXWpH38LcjvBXj0--2" value="True" style="edgeStyle=orthogonalEdgeStyle;rounded=0;orthogonalLoop=1;jettySize=auto;html=1;exitX=0;exitY=0.5;exitDx=0;exitDy=0;entryX=0.5;entryY=0;entryDx=0;entryDy=0;" parent="BmgKbO8g2pXzUuBbyKO1-1" source="ezdFIuFt6yYD-eqGVIw8-3" target="m2w_BXWpH38LcjvBXj0--1" edge="1">
                    <mxGeometry x="-0.7957" relative="1" as="geometry">
                        <mxPoint as="offset"/>
                    </mxGeometry>
                </mxCell>
                <mxCell id="ezdFIuFt6yYD-eqGVIw8-3" value="Is associated &#10;door/roof closed" style="rhombus;whiteSpace=wrap;spacing=20;spacingLeft=0;fillColor=#fff2cc;strokeColor=#d6b656;" parent="BmgKbO8g2pXzUuBbyKO1-1" vertex="1">
                    <mxGeometry x="390" y="110" width="170" height="80" as="geometry"/>
                </mxCell>
                <mxCell id="m2w_BXWpH38LcjvBXj0--3" value="True" style="edgeStyle=orthogonalEdgeStyle;rounded=0;orthogonalLoop=1;jettySize=auto;html=1;exitX=0;exitY=0.5;exitDx=0;exitDy=0;entryX=0.5;entryY=0;entryDx=0;entryDy=0;" parent="BmgKbO8g2pXzUuBbyKO1-1" source="ezdFIuFt6yYD-eqGVIw8-4" target="m2w_BXWpH38LcjvBXj0--1" edge="1">
                    <mxGeometry x="-0.6546" relative="1" as="geometry">
                        <mxPoint as="offset"/>
                    </mxGeometry>
                </mxCell>
                <mxCell id="m2w_BXWpH38LcjvBXj0--4" value="False" style="edgeStyle=orthogonalEdgeStyle;rounded=0;orthogonalLoop=1;jettySize=auto;html=1;exitX=0.5;exitY=1;exitDx=0;exitDy=0;entryX=0.5;entryY=0;entryDx=0;entryDy=0;" parent="BmgKbO8g2pXzUuBbyKO1-1" source="ezdFIuFt6yYD-eqGVIw8-4" edge="1">
                    <mxGeometry relative="1" as="geometry">
                        <mxPoint x="475" y="350" as="targetPoint"/>
                    </mxGeometry>
                </mxCell>
                <mxCell id="ezdFIuFt6yYD-eqGVIw8-4" value="Is associated pad retracted/lowered" style="rhombus;whiteSpace=wrap;spacing=20;spacingLeft=0;fillColor=#fff2cc;strokeColor=#d6b656;" parent="BmgKbO8g2pXzUuBbyKO1-1" vertex="1">
                    <mxGeometry x="390" y="230" width="170" height="80" as="geometry"/>
                </mxCell>
                <mxCell id="b0UfwqFUHMRh0QjAOEPq-3" style="edgeStyle=orthogonalEdgeStyle;rounded=0;orthogonalLoop=1;jettySize=auto;html=1;exitX=0.5;exitY=1;exitDx=0;exitDy=0;entryX=0.5;entryY=0;entryDx=0;entryDy=0;" parent="BmgKbO8g2pXzUuBbyKO1-1" source="EoTAPa23FGB4TIkIXfIO-0" target="EoTAPa23FGB4TIkIXfIO-2" edge="1">
                    <mxGeometry relative="1" as="geometry"/>
                </mxCell>
                <mxCell id="EoTAPa23FGB4TIkIXfIO-0" value="Await drone landed notification&amp;nbsp;" style="rounded=0;whiteSpace=wrap;html=1;" parent="BmgKbO8g2pXzUuBbyKO1-1" vertex="1">
                    <mxGeometry x="420" y="420" width="110" height="40" as="geometry"/>
                </mxCell>
                <mxCell id="b0UfwqFUHMRh0QjAOEPq-2" style="edgeStyle=orthogonalEdgeStyle;rounded=0;orthogonalLoop=1;jettySize=auto;html=1;exitX=0.5;exitY=1;exitDx=0;exitDy=0;entryX=0.5;entryY=0;entryDx=0;entryDy=0;" parent="BmgKbO8g2pXzUuBbyKO1-1" target="EoTAPa23FGB4TIkIXfIO-0" edge="1">
                    <mxGeometry relative="1" as="geometry">
                        <mxPoint x="475" y="390" as="sourcePoint"/>
                    </mxGeometry>
                </mxCell>
                <mxCell id="b0UfwqFUHMRh0QjAOEPq-4" value="False" style="edgeStyle=orthogonalEdgeStyle;rounded=0;orthogonalLoop=1;jettySize=auto;html=1;exitX=0.5;exitY=1;exitDx=0;exitDy=0;entryX=0.5;entryY=0;entryDx=0;entryDy=0;" parent="BmgKbO8g2pXzUuBbyKO1-1" source="EoTAPa23FGB4TIkIXfIO-2" target="sbGBhIoF96SYD7EbUi3N-0" edge="1">
                    <mxGeometry relative="1" as="geometry"/>
                </mxCell>
                <mxCell id="b0UfwqFUHMRh0QjAOEPq-13" value="True" style="edgeStyle=orthogonalEdgeStyle;rounded=0;orthogonalLoop=1;jettySize=auto;html=1;exitX=1;exitY=0.5;exitDx=0;exitDy=0;entryX=0;entryY=0.5;entryDx=0;entryDy=0;" parent="BmgKbO8g2pXzUuBbyKO1-1" source="EoTAPa23FGB4TIkIXfIO-2" target="b0UfwqFUHMRh0QjAOEPq-12" edge="1">
                    <mxGeometry relative="1" as="geometry"/>
                </mxCell>
                <mxCell id="EoTAPa23FGB4TIkIXfIO-2" value="Is drone too close to landing pad edge" style="rhombus;whiteSpace=wrap;spacing=20;spacingLeft=0;fillColor=#fff2cc;strokeColor=#d6b656;" parent="BmgKbO8g2pXzUuBbyKO1-1" vertex="1">
                    <mxGeometry x="390" y="490" width="170" height="80" as="geometry"/>
                </mxCell>
                <mxCell id="b0UfwqFUHMRh0QjAOEPq-5" style="edgeStyle=orthogonalEdgeStyle;rounded=0;orthogonalLoop=1;jettySize=auto;html=1;exitX=0.5;exitY=1;exitDx=0;exitDy=0;entryX=0.5;entryY=0;entryDx=0;entryDy=0;" parent="BmgKbO8g2pXzUuBbyKO1-1" source="sbGBhIoF96SYD7EbUi3N-0" target="sbGBhIoF96SYD7EbUi3N-1" edge="1">
                    <mxGeometry relative="1" as="geometry"/>
                </mxCell>
                <mxCell id="sbGBhIoF96SYD7EbUi3N-0" value="command = retract/lower associated pad" style="rounded=0;whiteSpace=wrap;html=1;" parent="BmgKbO8g2pXzUuBbyKO1-1" vertex="1">
                    <mxGeometry x="405" y="610" width="140" height="40" as="geometry"/>
                </mxCell>
                <mxCell id="b0UfwqFUHMRh0QjAOEPq-6" value="Success" style="edgeStyle=orthogonalEdgeStyle;rounded=0;orthogonalLoop=1;jettySize=auto;html=1;exitX=0.5;exitY=1;exitDx=0;exitDy=0;entryX=0.5;entryY=0;entryDx=0;entryDy=0;" parent="BmgKbO8g2pXzUuBbyKO1-1" source="sbGBhIoF96SYD7EbUi3N-1" target="sbGBhIoF96SYD7EbUi3N-2" edge="1">
                    <mxGeometry relative="1" as="geometry"/>
                </mxCell>
                <mxCell id="SKpPqC5934XQPT_Fq07k-0" value="Unsuccessful" style="edgeStyle=orthogonalEdgeStyle;rounded=0;orthogonalLoop=1;jettySize=auto;html=1;exitX=0;exitY=0.5;exitDx=0;exitDy=0;entryX=0.5;entryY=0;entryDx=0;entryDy=0;" parent="BmgKbO8g2pXzUuBbyKO1-1" source="sbGBhIoF96SYD7EbUi3N-1" target="t8H_pRM_Va7mY0PfpFwY-0" edge="1">
                    <mxGeometry x="-0.6873" relative="1" as="geometry">
                        <mxPoint as="offset"/>
                    </mxGeometry>
                </mxCell>
                <mxCell id="sbGBhIoF96SYD7EbUi3N-1" value="&lt;a href=&quot;data:page/id,rtuHvfN65sJRfW5IH7EF&quot;&gt;Run Motor System Command&lt;/a&gt;" style="shape=process;whiteSpace=wrap;html=1;backgroundOutline=1;fillColor=#dae8fc;strokeColor=#6c8ebf;" parent="BmgKbO8g2pXzUuBbyKO1-1" vertex="1">
                    <mxGeometry x="410" y="680" width="130" height="40" as="geometry"/>
                </mxCell>
                <mxCell id="b0UfwqFUHMRh0QjAOEPq-7" style="edgeStyle=orthogonalEdgeStyle;rounded=0;orthogonalLoop=1;jettySize=auto;html=1;exitX=0.5;exitY=1;exitDx=0;exitDy=0;entryX=0.5;entryY=0;entryDx=0;entryDy=0;" parent="BmgKbO8g2pXzUuBbyKO1-1" source="sbGBhIoF96SYD7EbUi3N-2" target="sbGBhIoF96SYD7EbUi3N-3" edge="1">
                    <mxGeometry relative="1" as="geometry"/>
                </mxCell>
                <mxCell id="sbGBhIoF96SYD7EbUi3N-2" value="Wait for motor system command to complete" style="rounded=0;whiteSpace=wrap;html=1;" parent="BmgKbO8g2pXzUuBbyKO1-1" vertex="1">
                    <mxGeometry x="405" y="750" width="140" height="40" as="geometry"/>
                </mxCell>
                <mxCell id="b0UfwqFUHMRh0QjAOEPq-8" style="edgeStyle=orthogonalEdgeStyle;rounded=0;orthogonalLoop=1;jettySize=auto;html=1;exitX=0.5;exitY=1;exitDx=0;exitDy=0;entryX=0.5;entryY=0;entryDx=0;entryDy=0;" parent="BmgKbO8g2pXzUuBbyKO1-1" source="sbGBhIoF96SYD7EbUi3N-3" target="sbGBhIoF96SYD7EbUi3N-4" edge="1">
                    <mxGeometry relative="1" as="geometry"/>
                </mxCell>
                <mxCell id="sbGBhIoF96SYD7EbUi3N-3" value="command = close associated door/roof" style="rounded=0;whiteSpace=wrap;html=1;" parent="BmgKbO8g2pXzUuBbyKO1-1" vertex="1">
                    <mxGeometry x="405" y="820" width="140" height="40" as="geometry"/>
                </mxCell>
                <mxCell id="b0UfwqFUHMRh0QjAOEPq-9" value="Success" style="edgeStyle=orthogonalEdgeStyle;rounded=0;orthogonalLoop=1;jettySize=auto;html=1;exitX=0.5;exitY=1;exitDx=0;exitDy=0;entryX=0.5;entryY=0;entryDx=0;entryDy=0;" parent="BmgKbO8g2pXzUuBbyKO1-1" source="sbGBhIoF96SYD7EbUi3N-4" target="sbGBhIoF96SYD7EbUi3N-5" edge="1">
                    <mxGeometry relative="1" as="geometry"/>
                </mxCell>
                <mxCell id="t8H_pRM_Va7mY0PfpFwY-2" value="Unsuccessful" style="edgeStyle=orthogonalEdgeStyle;rounded=0;orthogonalLoop=1;jettySize=auto;html=1;exitX=0;exitY=0.5;exitDx=0;exitDy=0;entryX=0.5;entryY=0;entryDx=0;entryDy=0;" parent="BmgKbO8g2pXzUuBbyKO1-1" source="sbGBhIoF96SYD7EbUi3N-4" target="t8H_pRM_Va7mY0PfpFwY-0" edge="1">
                    <mxGeometry x="-0.3092" relative="1" as="geometry">
                        <mxPoint as="offset"/>
                    </mxGeometry>
                </mxCell>
                <mxCell id="sbGBhIoF96SYD7EbUi3N-4" value="&lt;a href=&quot;data:page/id,rtuHvfN65sJRfW5IH7EF&quot;&gt;Run Motor System Command&lt;/a&gt;" style="shape=process;whiteSpace=wrap;html=1;backgroundOutline=1;fillColor=#dae8fc;strokeColor=#6c8ebf;" parent="BmgKbO8g2pXzUuBbyKO1-1" vertex="1">
                    <mxGeometry x="410" y="890" width="130" height="40" as="geometry"/>
                </mxCell>
                <mxCell id="b0UfwqFUHMRh0QjAOEPq-10" style="edgeStyle=orthogonalEdgeStyle;rounded=0;orthogonalLoop=1;jettySize=auto;html=1;exitX=0.5;exitY=1;exitDx=0;exitDy=0;entryX=0.5;entryY=0;entryDx=0;entryDy=0;" parent="BmgKbO8g2pXzUuBbyKO1-1" source="sbGBhIoF96SYD7EbUi3N-5" target="QVfdNijhhfZUCfVDg-LO-0" edge="1">
                    <mxGeometry relative="1" as="geometry"/>
                </mxCell>
                <mxCell id="sbGBhIoF96SYD7EbUi3N-5" value="Wait for motor system command to complete" style="rounded=0;whiteSpace=wrap;html=1;" parent="BmgKbO8g2pXzUuBbyKO1-1" vertex="1">
                    <mxGeometry x="405" y="960" width="140" height="40" as="geometry"/>
                </mxCell>
                <mxCell id="QVfdNijhhfZUCfVDg-LO-0" value="Completed Successfully" style="rounded=1;whiteSpace=wrap;html=1;arcSize=50;fillColor=#d5e8d4;strokeColor=#82b366;" parent="BmgKbO8g2pXzUuBbyKO1-1" vertex="1">
                    <mxGeometry x="430" y="1030" width="90" height="40" as="geometry"/>
                </mxCell>
                <mxCell id="b0UfwqFUHMRh0QjAOEPq-1" style="edgeStyle=orthogonalEdgeStyle;rounded=0;orthogonalLoop=1;jettySize=auto;html=1;exitX=0.5;exitY=1;exitDx=0;exitDy=0;entryX=0.5;entryY=0;entryDx=0;entryDy=0;" parent="BmgKbO8g2pXzUuBbyKO1-1" source="m2w_BXWpH38LcjvBXj0--0" target="b0UfwqFUHMRh0QjAOEPq-0" edge="1">
                    <mxGeometry relative="1" as="geometry"/>
                </mxCell>
                <mxCell id="m2w_BXWpH38LcjvBXj0--0" value="Report denied landing request" style="shape=parallelogram;perimeter=parallelogramPerimeter;whiteSpace=wrap;html=1;fixedSize=1;spacing=20;" parent="BmgKbO8g2pXzUuBbyKO1-1" vertex="1">
                    <mxGeometry x="210" y="370" width="152.5" height="40" as="geometry"/>
                </mxCell>
                <mxCell id="m2w_BXWpH38LcjvBXj0--5" style="edgeStyle=orthogonalEdgeStyle;rounded=0;orthogonalLoop=1;jettySize=auto;html=1;exitX=0.5;exitY=1;exitDx=0;exitDy=0;entryX=0.5;entryY=0;entryDx=0;entryDy=0;" parent="BmgKbO8g2pXzUuBbyKO1-1" source="m2w_BXWpH38LcjvBXj0--1" target="m2w_BXWpH38LcjvBXj0--0" edge="1">
                    <mxGeometry relative="1" as="geometry"/>
                </mxCell>
                <mxCell id="m2w_BXWpH38LcjvBXj0--1" value="Deny drone landing request" style="rounded=0;whiteSpace=wrap;html=1;" parent="BmgKbO8g2pXzUuBbyKO1-1" vertex="1">
                    <mxGeometry x="231.25" y="300" width="110" height="40" as="geometry"/>
                </mxCell>
                <mxCell id="b0UfwqFUHMRh0QjAOEPq-0" value="Completed Unsuccessfully" style="rounded=1;whiteSpace=wrap;html=1;arcSize=50;fillColor=#f8cecc;strokeColor=#b85450;" parent="BmgKbO8g2pXzUuBbyKO1-1" vertex="1">
                    <mxGeometry x="241.25" y="440" width="90" height="40" as="geometry"/>
                </mxCell>
                <mxCell id="b0UfwqFUHMRh0QjAOEPq-14" style="edgeStyle=orthogonalEdgeStyle;rounded=0;orthogonalLoop=1;jettySize=auto;html=1;exitX=0.5;exitY=0;exitDx=0;exitDy=0;entryX=1;entryY=0.5;entryDx=0;entryDy=0;" parent="BmgKbO8g2pXzUuBbyKO1-1" source="b0UfwqFUHMRh0QjAOEPq-12" target="0Dbf7uK38Kx543Am_5wL-0" edge="1">
                    <mxGeometry relative="1" as="geometry"/>
                </mxCell>
                <mxCell id="b0UfwqFUHMRh0QjAOEPq-12" value="Request drone landing retry" style="rounded=0;whiteSpace=wrap;html=1;" parent="BmgKbO8g2pXzUuBbyKO1-1" vertex="1">
                    <mxGeometry x="620" y="510" width="110" height="40" as="geometry"/>
                </mxCell>
                <mxCell id="SKpPqC5934XQPT_Fq07k-1" style="edgeStyle=orthogonalEdgeStyle;rounded=0;orthogonalLoop=1;jettySize=auto;html=1;exitX=0.5;exitY=1;exitDx=0;exitDy=0;entryX=0.5;entryY=0;entryDx=0;entryDy=0;" parent="BmgKbO8g2pXzUuBbyKO1-1" source="t8H_pRM_Va7mY0PfpFwY-0" target="t8H_pRM_Va7mY0PfpFwY-1" edge="1">
                    <mxGeometry relative="1" as="geometry"/>
                </mxCell>
                <mxCell id="t8H_pRM_Va7mY0PfpFwY-0" value="Report cause of failure" style="shape=parallelogram;perimeter=parallelogramPerimeter;whiteSpace=wrap;html=1;fixedSize=1;spacing=20;" parent="BmgKbO8g2pXzUuBbyKO1-1" vertex="1">
                    <mxGeometry x="210" y="960" width="152.5" height="40" as="geometry"/>
                </mxCell>
                <mxCell id="t8H_pRM_Va7mY0PfpFwY-1" value="Completed Unsuccessfully" style="rounded=1;whiteSpace=wrap;html=1;arcSize=50;fillColor=#f8cecc;strokeColor=#b85450;" parent="BmgKbO8g2pXzUuBbyKO1-1" vertex="1">
                    <mxGeometry x="241.25" y="1030" width="90" height="40" as="geometry"/>
                </mxCell>
                <mxCell id="0Dbf7uK38Kx543Am_5wL-0" value="Execute drone's landing" style="shape=process;whiteSpace=wrap;html=1;backgroundOutline=1;fillColor=#e1d5e7;strokeColor=#9673a6;" parent="BmgKbO8g2pXzUuBbyKO1-1" vertex="1">
                    <mxGeometry x="415" y="350" width="120" height="40" as="geometry"/>
                </mxCell>
            </root>
        </mxGraphModel>
    </diagram>
    <diagram id="yRxL0HJrPYs7oAlfiCPA" name="Battery-Exchange">
        &#xa;
        <mxGraphModel dx="1456" dy="1011" grid="1" gridSize="10" guides="1" tooltips="1" connect="1" arrows="1" fold="1" page="1" pageScale="1" pageWidth="850" pageHeight="1100" math="0" shadow="0">
            &#xa;
            <root>
                &#xa;
                <mxCell id="2pvIOqiONcT9U5Z8N62Q-0"/>
                &#xa;
                <mxCell id="2pvIOqiONcT9U5Z8N62Q-1" parent="2pvIOqiONcT9U5Z8N62Q-0"/>
                &#xa;
                <mxCell id="2pvIOqiONcT9U5Z8N62Q-2" value="&lt;h1&gt;Battery Exchange&lt;/h1&gt;" style="text;html=1;strokeColor=none;fillColor=none;spacing=5;spacingTop=-20;whiteSpace=wrap;overflow=hidden;rounded=0;align=right;" parent="2pvIOqiONcT9U5Z8N62Q-1" vertex="1">
                    &#xa;
                    <mxGeometry x="600" y="40" width="200" height="80" as="geometry"/>
                    &#xa;
                </mxCell>
                &#xa;
                <mxCell id="wfcUMusg-ZFhL59XjR6f-0" style="edgeStyle=orthogonalEdgeStyle;rounded=0;orthogonalLoop=1;jettySize=auto;html=1;exitX=0.5;exitY=1;exitDx=0;exitDy=0;entryX=0.5;entryY=0;entryDx=0;entryDy=0;" parent="2pvIOqiONcT9U5Z8N62Q-1" source="x-Mfw2ze44Yzxxr7HtGw-0" target="q3X9dzVVSh-SneY1aLzZ-1" edge="1">
                    &#xa;
                    <mxGeometry relative="1" as="geometry"/>
                    &#xa;
                </mxCell>
                &#xa;
                <mxCell id="x-Mfw2ze44Yzxxr7HtGw-0" value="Start" style="rounded=1;whiteSpace=wrap;html=1;arcSize=50;fillColor=#d5e8d4;strokeColor=#82b366;" parent="2pvIOqiONcT9U5Z8N62Q-1" vertex="1">
                    &#xa;
                    <mxGeometry x="430" y="40" width="90" height="40" as="geometry"/>
                    &#xa;
                </mxCell>
                &#xa;
                <mxCell id="wfcUMusg-ZFhL59XjR6f-2" style="edgeStyle=orthogonalEdgeStyle;rounded=0;orthogonalLoop=1;jettySize=auto;html=1;exitX=0.5;exitY=1;exitDx=0;exitDy=0;entryX=0.5;entryY=0;entryDx=0;entryDy=0;" parent="2pvIOqiONcT9U5Z8N62Q-1" edge="1">
                    &#xa;
                    <mxGeometry relative="1" as="geometry">
                        &#xa;
                        <mxPoint x="475" y="220" as="sourcePoint"/>
                        &#xa;
                        <mxPoint x="475" y="250" as="targetPoint"/>
                        &#xa;
                    </mxGeometry>
                    &#xa;
                </mxCell>
                &#xa;
                <mxCell id="wfcUMusg-ZFhL59XjR6f-1" style="edgeStyle=orthogonalEdgeStyle;rounded=0;orthogonalLoop=1;jettySize=auto;html=1;exitX=0.5;exitY=1;exitDx=0;exitDy=0;entryX=0.5;entryY=0;entryDx=0;entryDy=0;" parent="2pvIOqiONcT9U5Z8N62Q-1" source="q3X9dzVVSh-SneY1aLzZ-1" edge="1">
                    &#xa;
                    <mxGeometry relative="1" as="geometry">
                        &#xa;
                        <mxPoint x="475" y="180" as="targetPoint"/>
                        &#xa;
                    </mxGeometry>
                    &#xa;
                </mxCell>
                &#xa;
                <mxCell id="q3X9dzVVSh-SneY1aLzZ-1" value="Upload drone data to local server&lt;span style=&quot;color: rgba(0 , 0 , 0 , 0) ; font-family: monospace ; font-size: 0px&quot;&gt;%3CmxGraphModel%3E%3Croot%3E%3CmxCell%20id%3D%220%22%2F%3E%3CmxCell%20id%3D%221%22%20parent%3D%220%22%2F%3E%3CmxCell%20id%3D%222%22%20value%3D%22Rotate%20landing%20pad%20until%20drone's%20marker%20is%20visible%22%20style%3D%22rounded%3D0%3BwhiteSpace%3Dwrap%3Bhtml%3D1%3B%22%20vertex%3D%221%22%20parent%3D%221%22%3E%3CmxGeometry%20x%3D%22405%22%20y%3D%22110%22%20width%3D%22140%22%20height%3D%2240%22%20as%3D%22geometry%22%2F%3E%3C%2FmxCell%3E%3C%2Froot%3E%3C%2FmxGraphModel%3E&lt;/span&gt;" style="rounded=0;whiteSpace=wrap;html=1;" parent="2pvIOqiONcT9U5Z8N62Q-1" vertex="1">
                    &#xa;
                    <mxGeometry x="405" y="110" width="140" height="40" as="geometry"/>
                    &#xa;
                </mxCell>
                &#xa;
                <mxCell id="wfcUMusg-ZFhL59XjR6f-5" style="edgeStyle=orthogonalEdgeStyle;rounded=0;orthogonalLoop=1;jettySize=auto;html=1;exitX=0.5;exitY=1;exitDx=0;exitDy=0;entryX=0.5;entryY=0;entryDx=0;entryDy=0;" parent="2pvIOqiONcT9U5Z8N62Q-1" target="m8i2fbBwzrsKLm0TtPy4-0" edge="1">
                    &#xa;
                    <mxGeometry relative="1" as="geometry">
                        &#xa;
                        <mxPoint x="475" y="290" as="sourcePoint"/>
                        &#xa;
                    </mxGeometry>
                    &#xa;
                </mxCell>
                &#xa;
                <mxCell id="wfcUMusg-ZFhL59XjR6f-6" value="True" style="edgeStyle=orthogonalEdgeStyle;rounded=0;orthogonalLoop=1;jettySize=auto;html=1;exitX=0;exitY=0.5;exitDx=0;exitDy=0;entryX=1;entryY=0.5;entryDx=0;entryDy=0;" parent="2pvIOqiONcT9U5Z8N62Q-1" source="m8i2fbBwzrsKLm0TtPy4-0" target="5WDKP5dDmtCozmeaOS8j-0" edge="1">
                    &#xa;
                    <mxGeometry relative="1" as="geometry"/>
                    &#xa;
                </mxCell>
                &#xa;
                <mxCell id="wfcUMusg-ZFhL59XjR6f-8" value="False" style="edgeStyle=orthogonalEdgeStyle;rounded=0;orthogonalLoop=1;jettySize=auto;html=1;exitX=0.5;exitY=1;exitDx=0;exitDy=0;entryX=0.5;entryY=0;entryDx=0;entryDy=0;" parent="2pvIOqiONcT9U5Z8N62Q-1" source="m8i2fbBwzrsKLm0TtPy4-0" target="sqhRM9SESpreYEh_UM4d-2" edge="1">
                    &#xa;
                    <mxGeometry x="-0.5" relative="1" as="geometry">
                        &#xa;
                        <mxPoint as="offset"/>
                        &#xa;
                        <mxPoint x="475" y="490" as="targetPoint"/>
                        &#xa;
                    </mxGeometry>
                    &#xa;
                </mxCell>
                &#xa;
                <mxCell id="m8i2fbBwzrsKLm0TtPy4-0" value="No fully charged batteries available" style="rhombus;whiteSpace=wrap;spacing=20;spacingLeft=0;fillColor=#fff2cc;strokeColor=#d6b656;" parent="2pvIOqiONcT9U5Z8N62Q-1" vertex="1">
                    &#xa;
                    <mxGeometry x="390" y="320" width="170" height="80" as="geometry"/>
                    &#xa;
                </mxCell>
                &#xa;
                <mxCell id="OOwTPBylR_vJox37CIzO-1" style="edgeStyle=orthogonalEdgeStyle;rounded=0;orthogonalLoop=1;jettySize=auto;html=1;exitX=0.5;exitY=1;exitDx=0;exitDy=0;entryX=0.5;entryY=0;entryDx=0;entryDy=0;" edge="1" parent="2pvIOqiONcT9U5Z8N62Q-1" target="OOwTPBylR_vJox37CIzO-0">
                    &#xa;
                    <mxGeometry relative="1" as="geometry">
                        &#xa;
                        <mxPoint x="472.5" y="530" as="sourcePoint"/>
                        &#xa;
                    </mxGeometry>
                    &#xa;
                </mxCell>
                &#xa;
                <mxCell id="wfcUMusg-ZFhL59XjR6f-9" style="edgeStyle=orthogonalEdgeStyle;rounded=0;orthogonalLoop=1;jettySize=auto;html=1;exitX=0.5;exitY=1;exitDx=0;exitDy=0;entryX=0.5;entryY=0;entryDx=0;entryDy=0;" parent="2pvIOqiONcT9U5Z8N62Q-1" source="fcEWHfEK6V5aDDPdpjb9-0" target="sqhRM9SESpreYEh_UM4d-2" edge="1">
                    &#xa;
                    <mxGeometry relative="1" as="geometry">
                        &#xa;
                        <mxPoint x="475" y="490" as="targetPoint"/>
                        &#xa;
                    </mxGeometry>
                    &#xa;
                </mxCell>
                &#xa;
                <mxCell id="fcEWHfEK6V5aDDPdpjb9-0" value="Wait for a battery to fully charge" style="rounded=0;whiteSpace=wrap;html=1;" parent="2pvIOqiONcT9U5Z8N62Q-1" vertex="1">
                    &#xa;
                    <mxGeometry x="196.25" y="410" width="140" height="40" as="geometry"/>
                    &#xa;
                </mxCell>
                &#xa;
                <mxCell id="wfcUMusg-ZFhL59XjR6f-7" style="edgeStyle=orthogonalEdgeStyle;rounded=0;orthogonalLoop=1;jettySize=auto;html=1;exitX=0.5;exitY=1;exitDx=0;exitDy=0;entryX=0.5;entryY=0;entryDx=0;entryDy=0;" parent="2pvIOqiONcT9U5Z8N62Q-1" source="5WDKP5dDmtCozmeaOS8j-0" target="fcEWHfEK6V5aDDPdpjb9-0" edge="1">
                    &#xa;
                    <mxGeometry relative="1" as="geometry"/>
                    &#xa;
                </mxCell>
                &#xa;
                <mxCell id="5WDKP5dDmtCozmeaOS8j-0" value="Report waiting for full battery to user" style="shape=parallelogram;perimeter=parallelogramPerimeter;whiteSpace=wrap;html=1;fixedSize=1;spacing=20;" parent="2pvIOqiONcT9U5Z8N62Q-1" vertex="1">
                    &#xa;
                    <mxGeometry x="190" y="340" width="152.5" height="40" as="geometry"/>
                    &#xa;
                </mxCell>
                &#xa;
                <mxCell id="q9q6nFtNYf9VHX1wWtFO-0" value="Completed Successfully" style="rounded=1;whiteSpace=wrap;html=1;arcSize=50;fillColor=#d5e8d4;strokeColor=#82b366;" parent="2pvIOqiONcT9U5Z8N62Q-1" vertex="1">
                    &#xa;
                    <mxGeometry x="427.5" y="630" width="90" height="40" as="geometry"/>
                    &#xa;
                </mxCell>
                &#xa;
                <mxCell id="OOwTPBylR_vJox37CIzO-2" style="edgeStyle=orthogonalEdgeStyle;rounded=0;orthogonalLoop=1;jettySize=auto;html=1;exitX=0.5;exitY=1;exitDx=0;exitDy=0;entryX=0.5;entryY=0;entryDx=0;entryDy=0;" edge="1" parent="2pvIOqiONcT9U5Z8N62Q-1" source="OOwTPBylR_vJox37CIzO-0" target="q9q6nFtNYf9VHX1wWtFO-0">
                    &#xa;
                    <mxGeometry relative="1" as="geometry"/>
                    &#xa;
                </mxCell>
                &#xa;
                <mxCell id="OOwTPBylR_vJox37CIzO-0" value="Await data upload completion" style="rounded=0;whiteSpace=wrap;html=1;" vertex="1" parent="2pvIOqiONcT9U5Z8N62Q-1">
                    &#xa;
                    <mxGeometry x="402.5" y="560" width="140" height="40" as="geometry"/>
                    &#xa;
                </mxCell>
                &#xa;
                <mxCell id="sqhRM9SESpreYEh_UM4d-0" value="Locate drone battery" style="shape=process;whiteSpace=wrap;html=1;backgroundOutline=1;fillColor=#e1d5e7;strokeColor=#9673a6;" vertex="1" parent="2pvIOqiONcT9U5Z8N62Q-1">
                    &#xa;
                    <mxGeometry x="415" y="180" width="120" height="40" as="geometry"/>
                    &#xa;
                </mxCell>
                &#xa;
                <mxCell id="sqhRM9SESpreYEh_UM4d-1" value="Remove and charge battery" style="shape=process;whiteSpace=wrap;html=1;backgroundOutline=1;fillColor=#e1d5e7;strokeColor=#9673a6;" vertex="1" parent="2pvIOqiONcT9U5Z8N62Q-1">
                    &#xa;
                    <mxGeometry x="415" y="250" width="120" height="40" as="geometry"/>
                    &#xa;
                </mxCell>
                &#xa;
                <mxCell id="sqhRM9SESpreYEh_UM4d-2" value="Pick-up and connect new battery" style="shape=process;whiteSpace=wrap;html=1;backgroundOutline=1;fillColor=#e1d5e7;strokeColor=#9673a6;" vertex="1" parent="2pvIOqiONcT9U5Z8N62Q-1">
                    &#xa;
                    <mxGeometry x="402.5" y="490" width="145" height="40" as="geometry"/>
                    &#xa;
                </mxCell>
                &#xa;
            </root>
            &#xa;
        </mxGraphModel>
        &#xa;
    </diagram>
    <diagram id="orloIAG8hlAXuOe0c8Ag" name="Diagnostic-Walkthrough">
        &#xa;
        <mxGraphModel dx="1456" dy="1011" grid="1" gridSize="10" guides="1" tooltips="1" connect="1" arrows="1" fold="1" page="1" pageScale="1" pageWidth="850" pageHeight="1100" math="0" shadow="0">
            &#xa;
            <root>
                &#xa;
                <mxCell id="fG3ONn5-8s_T-3zgY-XX-0"/>
                &#xa;
                <mxCell id="fG3ONn5-8s_T-3zgY-XX-1" parent="fG3ONn5-8s_T-3zgY-XX-0"/>
                &#xa;
                <mxCell id="fG3ONn5-8s_T-3zgY-XX-2" value="&lt;h1&gt;Diagnostic Walkthrough&lt;/h1&gt;" style="text;html=1;strokeColor=none;fillColor=none;spacing=5;spacingTop=-20;whiteSpace=wrap;overflow=hidden;rounded=0;align=right;" parent="fG3ONn5-8s_T-3zgY-XX-1" vertex="1">
                    &#xa;
                    <mxGeometry x="600" y="40" width="200" height="80" as="geometry"/>
                    &#xa;
                </mxCell>
                &#xa;
                <mxCell id="WzFAgCaQ2ju6mmjz37t9-1" style="edgeStyle=orthogonalEdgeStyle;rounded=0;orthogonalLoop=1;jettySize=auto;html=1;exitX=0.5;exitY=1;exitDx=0;exitDy=0;entryX=0.5;entryY=0;entryDx=0;entryDy=0;" parent="fG3ONn5-8s_T-3zgY-XX-1" source="vWJalRDqIUlITj9OSPa3-0" target="CEWZvf3xHpKDKzjj661w-0" edge="1">
                    &#xa;
                    <mxGeometry relative="1" as="geometry"/>
                    &#xa;
                </mxCell>
                &#xa;
                <mxCell id="vWJalRDqIUlITj9OSPa3-0" value="Start" style="rounded=1;whiteSpace=wrap;html=1;arcSize=50;fillColor=#d5e8d4;strokeColor=#82b366;" parent="fG3ONn5-8s_T-3zgY-XX-1" vertex="1">
                    &#xa;
                    <mxGeometry x="430" y="40" width="90" height="40" as="geometry"/>
                    &#xa;
                </mxCell>
                &#xa;
                <mxCell id="WzFAgCaQ2ju6mmjz37t9-2" style="edgeStyle=orthogonalEdgeStyle;rounded=0;orthogonalLoop=1;jettySize=auto;html=1;exitX=0.5;exitY=1;exitDx=0;exitDy=0;entryX=0.5;entryY=0;entryDx=0;entryDy=0;" parent="fG3ONn5-8s_T-3zgY-XX-1" source="CEWZvf3xHpKDKzjj661w-0" target="CEWZvf3xHpKDKzjj661w-1" edge="1">
                    &#xa;
                    <mxGeometry relative="1" as="geometry"/>
                    &#xa;
                </mxCell>
                &#xa;
                <mxCell id="CEWZvf3xHpKDKzjj661w-0" value="Report current Nest hardware state" style="shape=parallelogram;perimeter=parallelogramPerimeter;whiteSpace=wrap;html=1;fixedSize=1;spacing=20;" parent="fG3ONn5-8s_T-3zgY-XX-1" vertex="1">
                    &#xa;
                    <mxGeometry x="398.75" y="110" width="152.5" height="40" as="geometry"/>
                    &#xa;
                </mxCell>
                &#xa;
                <mxCell id="WzFAgCaQ2ju6mmjz37t9-3" style="edgeStyle=orthogonalEdgeStyle;rounded=0;orthogonalLoop=1;jettySize=auto;html=1;exitX=0.5;exitY=1;exitDx=0;exitDy=0;entryX=0.5;entryY=0;entryDx=0;entryDy=0;" parent="fG3ONn5-8s_T-3zgY-XX-1" source="CEWZvf3xHpKDKzjj661w-1" target="zTFYtKBtBOgOo7WFsfIf-0" edge="1">
                    &#xa;
                    <mxGeometry relative="1" as="geometry"/>
                    &#xa;
                </mxCell>
                &#xa;
                <mxCell id="CEWZvf3xHpKDKzjj661w-1" value="Request observed hardware state from user" style="shape=parallelogram;perimeter=parallelogramPerimeter;whiteSpace=wrap;html=1;fixedSize=1;spacing=20;" parent="fG3ONn5-8s_T-3zgY-XX-1" vertex="1">
                    &#xa;
                    <mxGeometry x="384.38" y="180" width="181.25" height="40" as="geometry"/>
                    &#xa;
                </mxCell>
                &#xa;
                <mxCell id="WzFAgCaQ2ju6mmjz37t9-4" value="True" style="edgeStyle=orthogonalEdgeStyle;rounded=0;orthogonalLoop=1;jettySize=auto;html=1;exitX=0;exitY=0.5;exitDx=0;exitDy=0;entryX=0.5;entryY=0;entryDx=0;entryDy=0;" parent="fG3ONn5-8s_T-3zgY-XX-1" source="zTFYtKBtBOgOo7WFsfIf-0" target="WzFAgCaQ2ju6mmjz37t9-0" edge="1">
                    &#xa;
                    <mxGeometry x="-0.7646" relative="1" as="geometry">
                        &#xa;
                        <mxPoint as="offset"/>
                        &#xa;
                    </mxGeometry>
                    &#xa;
                </mxCell>
                &#xa;
                <mxCell id="Lz5gt0mBg3p13m-BfyoL-1" value="False" style="edgeStyle=orthogonalEdgeStyle;rounded=0;orthogonalLoop=1;jettySize=auto;html=1;exitX=0.5;exitY=1;exitDx=0;exitDy=0;entryX=0.5;entryY=0;entryDx=0;entryDy=0;" parent="fG3ONn5-8s_T-3zgY-XX-1" source="zTFYtKBtBOgOo7WFsfIf-0" target="Lz5gt0mBg3p13m-BfyoL-0" edge="1">
                    &#xa;
                    <mxGeometry relative="1" as="geometry"/>
                    &#xa;
                </mxCell>
                &#xa;
                <mxCell id="zTFYtKBtBOgOo7WFsfIf-0" value="Discrepancy encountered" style="rhombus;whiteSpace=wrap;spacing=20;spacingLeft=0;fillColor=#fff2cc;strokeColor=#d6b656;" parent="fG3ONn5-8s_T-3zgY-XX-1" vertex="1">
                    &#xa;
                    <mxGeometry x="390.01" y="250" width="170" height="80" as="geometry"/>
                    &#xa;
                </mxCell>
                &#xa;
                <mxCell id="WzFAgCaQ2ju6mmjz37t9-7" style="edgeStyle=orthogonalEdgeStyle;rounded=0;orthogonalLoop=1;jettySize=auto;html=1;exitX=0.5;exitY=1;exitDx=0;exitDy=0;entryX=0.5;entryY=0;entryDx=0;entryDy=0;" parent="fG3ONn5-8s_T-3zgY-XX-1" source="zTFYtKBtBOgOo7WFsfIf-2" target="NaF7HBo7El6tnPU3iy2S-0" edge="1">
                    &#xa;
                    <mxGeometry relative="1" as="geometry"/>
                    &#xa;
                </mxCell>
                &#xa;
                <mxCell id="zTFYtKBtBOgOo7WFsfIf-2" value="Recieve diagnostic hardware command" style="shape=parallelogram;perimeter=parallelogramPerimeter;whiteSpace=wrap;html=1;fixedSize=1;spacing=20;" parent="fG3ONn5-8s_T-3zgY-XX-1" vertex="1">
                    &#xa;
                    <mxGeometry x="398.76" y="440" width="152.5" height="40" as="geometry"/>
                    &#xa;
                </mxCell>
                &#xa;
                <mxCell id="WzFAgCaQ2ju6mmjz37t9-8" style="edgeStyle=orthogonalEdgeStyle;rounded=0;orthogonalLoop=1;jettySize=auto;html=1;exitX=0.5;exitY=1;exitDx=0;exitDy=0;entryX=0.5;entryY=0;entryDx=0;entryDy=0;" parent="fG3ONn5-8s_T-3zgY-XX-1" source="NaF7HBo7El6tnPU3iy2S-0" target="lvF1OdEvDiyjZN4ig42m-0" edge="1">
                    &#xa;
                    <mxGeometry relative="1" as="geometry"/>
                    &#xa;
                </mxCell>
                &#xa;
                <mxCell id="NaF7HBo7El6tnPU3iy2S-0" value="&lt;a href=&quot;data:page/id,rtuHvfN65sJRfW5IH7EF&quot;&gt;Run Motor System Command&lt;/a&gt;" style="shape=process;whiteSpace=wrap;html=1;backgroundOutline=1;fillColor=#dae8fc;strokeColor=#6c8ebf;" parent="fG3ONn5-8s_T-3zgY-XX-1" vertex="1">
                    &#xa;
                    <mxGeometry x="410" y="510" width="130" height="40" as="geometry"/>
                    &#xa;
                </mxCell>
                &#xa;
                <mxCell id="WzFAgCaQ2ju6mmjz37t9-9" style="edgeStyle=orthogonalEdgeStyle;rounded=0;orthogonalLoop=1;jettySize=auto;html=1;exitX=0.5;exitY=1;exitDx=0;exitDy=0;entryX=0.5;entryY=0;entryDx=0;entryDy=0;" parent="fG3ONn5-8s_T-3zgY-XX-1" source="lvF1OdEvDiyjZN4ig42m-0" target="IxIjjoiMsIsvGqxby5QO-1" edge="1">
                    &#xa;
                    <mxGeometry relative="1" as="geometry"/>
                    &#xa;
                </mxCell>
                &#xa;
                <mxCell id="lvF1OdEvDiyjZN4ig42m-0" value="Recieve a successful or unsuccessful from user" style="shape=parallelogram;perimeter=parallelogramPerimeter;whiteSpace=wrap;html=1;fixedSize=1;spacing=20;" parent="fG3ONn5-8s_T-3zgY-XX-1" vertex="1">
                    &#xa;
                    <mxGeometry x="384.38" y="580" width="181.25" height="40" as="geometry"/>
                    &#xa;
                </mxCell>
                &#xa;
                <mxCell id="WzFAgCaQ2ju6mmjz37t9-5" value="True" style="edgeStyle=orthogonalEdgeStyle;rounded=0;orthogonalLoop=1;jettySize=auto;html=1;exitX=0;exitY=0.5;exitDx=0;exitDy=0;entryX=0.5;entryY=1;entryDx=0;entryDy=0;" parent="fG3ONn5-8s_T-3zgY-XX-1" source="IxIjjoiMsIsvGqxby5QO-1" target="WzFAgCaQ2ju6mmjz37t9-0" edge="1">
                    &#xa;
                    <mxGeometry x="-0.755" relative="1" as="geometry">
                        &#xa;
                        <mxPoint as="offset"/>
                        &#xa;
                    </mxGeometry>
                    &#xa;
                </mxCell>
                &#xa;
                <mxCell id="WzFAgCaQ2ju6mmjz37t9-10" value="False" style="edgeStyle=orthogonalEdgeStyle;rounded=0;orthogonalLoop=1;jettySize=auto;html=1;exitX=0.5;exitY=1;exitDx=0;exitDy=0;entryX=0.5;entryY=0;entryDx=0;entryDy=0;" parent="fG3ONn5-8s_T-3zgY-XX-1" source="IxIjjoiMsIsvGqxby5QO-1" target="0cAAzW0mhnxrcYS3oDDK-0" edge="1">
                    &#xa;
                    <mxGeometry relative="1" as="geometry"/>
                    &#xa;
                </mxCell>
                &#xa;
                <mxCell id="IxIjjoiMsIsvGqxby5QO-1" value="Receive an unsuccessful report" style="rhombus;whiteSpace=wrap;spacing=20;spacingLeft=0;fillColor=#fff2cc;strokeColor=#d6b656;" parent="fG3ONn5-8s_T-3zgY-XX-1" vertex="1">
                    &#xa;
                    <mxGeometry x="390.01" y="650" width="170" height="80" as="geometry"/>
                    &#xa;
                </mxCell>
                &#xa;
                <mxCell id="WzFAgCaQ2ju6mmjz37t9-11" value="False" style="edgeStyle=orthogonalEdgeStyle;rounded=0;orthogonalLoop=1;jettySize=auto;html=1;exitX=0.5;exitY=1;exitDx=0;exitDy=0;entryX=0.5;entryY=0;entryDx=0;entryDy=0;" parent="fG3ONn5-8s_T-3zgY-XX-1" source="0cAAzW0mhnxrcYS3oDDK-0" target="KIOTfZ1XJpvRp4YYYQY6-0" edge="1">
                    &#xa;
                    <mxGeometry relative="1" as="geometry"/>
                    &#xa;
                </mxCell>
                &#xa;
                <mxCell id="Lz5gt0mBg3p13m-BfyoL-3" value="True" style="edgeStyle=orthogonalEdgeStyle;rounded=0;orthogonalLoop=1;jettySize=auto;html=1;exitX=1;exitY=0.5;exitDx=0;exitDy=0;entryX=1;entryY=0.5;entryDx=0;entryDy=0;" parent="fG3ONn5-8s_T-3zgY-XX-1" source="0cAAzW0mhnxrcYS3oDDK-0" target="Lz5gt0mBg3p13m-BfyoL-0" edge="1">
                    &#xa;
                    <mxGeometry x="-0.8879" relative="1" as="geometry">
                        &#xa;
                        <Array as="points">
                            &#xa;
                            <mxPoint x="610" y="810"/>
                            &#xa;
                            <mxPoint x="610" y="390"/>
                            &#xa;
                        </Array>
                        &#xa;
                        <mxPoint as="offset"/>
                        &#xa;
                    </mxGeometry>
                    &#xa;
                </mxCell>
                &#xa;
                <mxCell id="0cAAzW0mhnxrcYS3oDDK-0" value="Some hardware has not been tested" style="rhombus;whiteSpace=wrap;spacing=20;spacingLeft=0;fillColor=#fff2cc;strokeColor=#d6b656;" parent="fG3ONn5-8s_T-3zgY-XX-1" vertex="1">
                    &#xa;
                    <mxGeometry x="390.01" y="770" width="170" height="80" as="geometry"/>
                    &#xa;
                </mxCell>
                &#xa;
                <mxCell id="KIOTfZ1XJpvRp4YYYQY6-0" value="Completed Successfully" style="rounded=1;whiteSpace=wrap;html=1;arcSize=50;fillColor=#d5e8d4;strokeColor=#82b366;" parent="fG3ONn5-8s_T-3zgY-XX-1" vertex="1">
                    &#xa;
                    <mxGeometry x="430.01" y="890" width="90" height="40" as="geometry"/>
                    &#xa;
                </mxCell>
                &#xa;
                <mxCell id="WzFAgCaQ2ju6mmjz37t9-0" value="Completed Unsuccessfully" style="rounded=1;whiteSpace=wrap;html=1;arcSize=50;fillColor=#f8cecc;strokeColor=#b85450;" parent="fG3ONn5-8s_T-3zgY-XX-1" vertex="1">
                    &#xa;
                    <mxGeometry x="270" y="460" width="90" height="40" as="geometry"/>
                    &#xa;
                </mxCell>
                &#xa;
                <mxCell id="Lz5gt0mBg3p13m-BfyoL-2" style="edgeStyle=orthogonalEdgeStyle;rounded=0;orthogonalLoop=1;jettySize=auto;html=1;exitX=0.5;exitY=1;exitDx=0;exitDy=0;entryX=0.5;entryY=0;entryDx=0;entryDy=0;" parent="fG3ONn5-8s_T-3zgY-XX-1" source="Lz5gt0mBg3p13m-BfyoL-0" target="zTFYtKBtBOgOo7WFsfIf-2" edge="1">
                    &#xa;
                    <mxGeometry relative="1" as="geometry"/>
                    &#xa;
                </mxCell>
                &#xa;
                <mxCell id="Lz5gt0mBg3p13m-BfyoL-0" value="Wait for user to select system to test" style="rounded=0;whiteSpace=wrap;html=1;" parent="fG3ONn5-8s_T-3zgY-XX-1" vertex="1">
                    &#xa;
                    <mxGeometry x="405.01" y="370" width="140" height="40" as="geometry"/>
                    &#xa;
                </mxCell>
                &#xa;
            </root>
            &#xa;
        </mxGraphModel>
        &#xa;
    </diagram>
</mxfile>